<?xml version="1.0" encoding="utf-8"?>
<!-- Generator: Adobe Illustrator 25.3.1, SVG Export Plug-In . SVG Version: 6.00 Build 0)  -->
<svg version="1.1" id="Layer_1" xmlns="http://www.w3.org/2000/svg" xmlns:xlink="http://www.w3.org/1999/xlink" x="0px" y="0px"
	 viewBox="0 0 2117.2 1158.4" style="enable-background:new 0 0 2117.2 1158.4;" xml:space="preserve">
<style type="text/css">
	.st0{fill-rule:evenodd;clip-rule:evenodd;fill:#E9E8F4;}
	.st1{fill-rule:evenodd;clip-rule:evenodd;fill:#F1F0F8;}
	.st2{fill-rule:evenodd;clip-rule:evenodd;fill:#B3AAE6;}
	.st3{fill-rule:evenodd;clip-rule:evenodd;fill:#8F82DA;}
	.st4{fill-rule:evenodd;clip-rule:evenodd;fill:#BEB6E9;}
	.st5{fill-rule:evenodd;clip-rule:evenodd;fill:#A59DD1;}
	.st6{fill-rule:evenodd;clip-rule:evenodd;fill:#E3E1F1;}
	.st7{fill-rule:evenodd;clip-rule:evenodd;fill:#9B92CC;}
	.st8{fill-rule:evenodd;clip-rule:evenodd;fill:#D0CCE7;}
	.st9{fill-rule:evenodd;clip-rule:evenodd;fill:#FFFFFF;}
	.st10{clip-path:url(#SVGID_3_);}
	
		.st11{clip-path:url(#SVGID_4_);fill:none;stroke:#D9D8E5;stroke-width:3.3669;stroke-linecap:round;stroke-linejoin:round;stroke-miterlimit:10;}
	
		.st12{clip-path:url(#SVGID_6_);fill:none;stroke:#ECECEE;stroke-width:4.7137;stroke-linecap:round;stroke-linejoin:round;stroke-miterlimit:10;}
	.st13{clip-path:url(#SVGID_6_);fill-rule:evenodd;clip-rule:evenodd;fill:#F3F2F7;}
	.st14{clip-path:url(#SVGID_9_);}
	
		.st15{clip-path:url(#SVGID_10_);fill:none;stroke:#D9D8E5;stroke-width:3.3669;stroke-linecap:round;stroke-linejoin:round;stroke-miterlimit:10;}
	
		.st16{clip-path:url(#SVGID_12_);fill:none;stroke:#ECECEE;stroke-width:4.7137;stroke-linecap:round;stroke-linejoin:round;stroke-miterlimit:10;}
	.st17{clip-path:url(#SVGID_15_);}
	
		.st18{clip-path:url(#SVGID_16_);fill:none;stroke:#D9D8E5;stroke-width:3.3669;stroke-linecap:round;stroke-linejoin:round;stroke-miterlimit:10;}
	
		.st19{clip-path:url(#SVGID_18_);fill:none;stroke:#ECECEE;stroke-width:4.7137;stroke-linecap:round;stroke-linejoin:round;stroke-miterlimit:10;}
	.st20{clip-path:url(#SVGID_18_);fill-rule:evenodd;clip-rule:evenodd;fill:#81B4E5;}
	.st21{clip-path:url(#SVGID_21_);}
	.st22{clip-path:url(#SVGID_22_);fill-rule:evenodd;clip-rule:evenodd;fill:#FFFFFF;}
	.st23{clip-path:url(#SVGID_24_);fill-rule:evenodd;clip-rule:evenodd;fill:#81B4E5;}
	.st24{clip-path:url(#SVGID_27_);}
	.st25{clip-path:url(#SVGID_28_);fill-rule:evenodd;clip-rule:evenodd;fill:#FFFFFF;}
	.st26{clip-path:url(#SVGID_30_);fill-rule:evenodd;clip-rule:evenodd;fill:#E79959;}
	.st27{clip-path:url(#SVGID_33_);}
	.st28{clip-path:url(#SVGID_34_);fill-rule:evenodd;clip-rule:evenodd;fill:#FFFFFF;}
	.st29{clip-path:url(#SVGID_36_);fill-rule:evenodd;clip-rule:evenodd;fill:#DE1F26;}
	.st30{clip-path:url(#SVGID_39_);}
	.st31{clip-path:url(#SVGID_40_);fill-rule:evenodd;clip-rule:evenodd;fill:#FFFFFF;}
	.st32{clip-path:url(#SVGID_42_);fill-rule:evenodd;clip-rule:evenodd;fill:#70BF44;}
	.st33{clip-path:url(#SVGID_45_);}
	.st34{clip-path:url(#SVGID_46_);fill-rule:evenodd;clip-rule:evenodd;fill:#FFFFFF;}
	.st35{clip-path:url(#SVGID_48_);fill-rule:evenodd;clip-rule:evenodd;fill:#6E62B5;}
	.st36{clip-path:url(#SVGID_51_);}
	.st37{clip-path:url(#SVGID_52_);fill-rule:evenodd;clip-rule:evenodd;fill:#FFFFFF;}
	.st38{clip-path:url(#SVGID_54_);fill-rule:evenodd;clip-rule:evenodd;fill:#81E59F;}
	.st39{clip-path:url(#SVGID_54_);fill-rule:evenodd;clip-rule:evenodd;fill:#6E62B5;}
	.st40{clip-path:url(#SVGID_54_);fill:none;stroke:#6E62B5;stroke-width:2.2446;stroke-linejoin:round;stroke-miterlimit:10;}
	.st41{clip-path:url(#SVGID_57_);}
	.st42{clip-path:url(#SVGID_58_);fill-rule:evenodd;clip-rule:evenodd;fill:#FFFFFF;}
	.st43{clip-path:url(#SVGID_60_);fill-rule:evenodd;clip-rule:evenodd;fill:#81B4E5;}
	.st44{clip-path:url(#SVGID_60_);fill-rule:evenodd;clip-rule:evenodd;fill:#3F3D56;}
	.st45{clip-path:url(#SVGID_60_);fill-rule:evenodd;clip-rule:evenodd;fill:#B8B6CB;}
	.st46{clip-path:url(#SVGID_60_);fill:#6E62B5;stroke:#6E62B5;stroke-width:1.3692;stroke-linejoin:round;stroke-miterlimit:10;}
	
		.st47{clip-path:url(#SVGID_60_);fill-rule:evenodd;clip-rule:evenodd;fill:#6E62B5;stroke:#6E62B5;stroke-width:1.3692;stroke-linecap:round;stroke-linejoin:round;stroke-miterlimit:10;}
	
		.st48{clip-path:url(#SVGID_60_);fill-rule:evenodd;clip-rule:evenodd;fill:#6E62B5;stroke:#6E62B5;stroke-width:1.3692;stroke-miterlimit:1.5;}
	.st49{fill-rule:evenodd;clip-rule:evenodd;fill:#001C46;}
	.st50{fill-rule:evenodd;clip-rule:evenodd;fill:#00265F;}
	.st51{fill-rule:evenodd;clip-rule:evenodd;fill:#EA9264;}
	.st52{fill-rule:evenodd;clip-rule:evenodd;fill:#EFEFEF;}
	.st53{fill-rule:evenodd;clip-rule:evenodd;fill:#FABD2B;}
	.st54{clip-path:url(#SVGID_62_);fill-rule:evenodd;clip-rule:evenodd;fill:#F4AF06;}
	.st55{fill-rule:evenodd;clip-rule:evenodd;fill:#F6F6F6;}
	.st56{fill-rule:evenodd;clip-rule:evenodd;}
	.st57{fill-rule:evenodd;clip-rule:evenodd;fill:#E9E9E9;}
	.st58{fill-rule:evenodd;clip-rule:evenodd;fill:#86550D;}
	.st59{fill-rule:evenodd;clip-rule:evenodd;fill:#FEC6AD;}
	.st60{clip-path:url(#SVGID_64_);fill-rule:evenodd;clip-rule:evenodd;fill:#FDA177;}
	.st61{fill-rule:evenodd;clip-rule:evenodd;fill:#172830;}
	.st62{fill-rule:evenodd;clip-rule:evenodd;fill:#2F3030;}
	.st63{fill-rule:evenodd;clip-rule:evenodd;fill:#353636;}
	.st64{fill-rule:evenodd;clip-rule:evenodd;fill:#1C1C1C;}
	.st65{fill-rule:evenodd;clip-rule:evenodd;fill:#90574B;}
	.st66{fill-rule:evenodd;clip-rule:evenodd;fill:#07090F;}
	.st67{fill-rule:evenodd;clip-rule:evenodd;fill:#111827;}
	.st68{fill-rule:evenodd;clip-rule:evenodd;fill:#3D2520;}
	.st69{fill-rule:evenodd;clip-rule:evenodd;fill:#043B5F;}
	.st70{fill-rule:evenodd;clip-rule:evenodd;fill:#FEB591;}
	.st71{fill-rule:evenodd;clip-rule:evenodd;fill:#4B5563;}
	.st72{fill-rule:evenodd;clip-rule:evenodd;fill:#03304D;}
	.st73{fill-rule:evenodd;clip-rule:evenodd;fill:#FAFAFA;}
	.st74{fill-rule:evenodd;clip-rule:evenodd;fill:#054D7B;}
	.st75{fill-rule:evenodd;clip-rule:evenodd;fill:#020607;}
	.st76{fill-rule:evenodd;clip-rule:evenodd;fill:#482514;}
	.st77{fill-rule:evenodd;clip-rule:evenodd;fill:#17110E;}
	.st78{clip-path:url(#SVGID_66_);fill-rule:evenodd;clip-rule:evenodd;fill:#FD7430;}
	.st79{fill-rule:evenodd;clip-rule:evenodd;fill:#3B2413;}
	.st80{fill-rule:evenodd;clip-rule:evenodd;fill:#28334D;}
	.st81{fill-rule:evenodd;clip-rule:evenodd;fill:#303D5C;}
	.st82{fill-rule:evenodd;clip-rule:evenodd;fill:#8A81C3;}
	.st83{fill-rule:evenodd;clip-rule:evenodd;fill:#6E62B5;}
	.st84{fill-rule:evenodd;clip-rule:evenodd;fill:#262626;}
	.st85{fill-rule:evenodd;clip-rule:evenodd;fill:#FEAB83;}
	.st86{clip-path:url(#SVGID_68_);fill-rule:evenodd;clip-rule:evenodd;fill:#FE9D6E;}
</style>
<g>
	<path class="st0" d="M1057.6,1029.8c563.8,0,1021.5,28.8,1021.5,64.3s-457.7,64.3-1021.5,64.3c-563.8,0-1021.5-28.8-1021.5-64.3
		S493.8,1029.8,1057.6,1029.8L1057.6,1029.8z"/>
	<path class="st1" d="M2008.2,1064.9c0,0,81.9-114.2,16.9-259c-65-144.8-117.4-221.3-81.8-392.7c35.6-171.5-49-305.6-257.9-374.2
		c-205.3-67.4-447-53.2-614.7,89.2C942,237.5,819.1,54.8,494.5,61.8C156.1,69-162,597.4,164.4,1072.4L2008.2,1064.9L2008.2,1064.9z"
		/>
	<path class="st2" d="M1874,922.3c0,0-52.3-7.7-65.6,10.1c-13.3,17.8-5.3,37.3,22.8,62.9c28.1,25.7,112.4,60.6,195.5,4.2
		c0,0-14.5-92.4-72.8-133C1895.6,825.8,1792.8,855,1874,922.3L1874,922.3z"/>
	<path class="st3" d="M1943.5,950.5c-46-25.3-81.7-39-111.5-45.9c-49.8-11.5-83.3-4.1-120.7,0.2c-2.7,0.4-4.7,2.9-4.3,5.6
		c0.4,2.7,2.9,4.7,5.6,4.3c36.5-5.2,69-13.4,118-3.6c29.6,6,65.2,18.5,111.3,42.3c0.8,0.4,1.9,0.1,2.3-0.7
		C1944.6,952,1944.3,950.9,1943.5,950.5L1943.5,950.5z"/>
	<path class="st4" d="M1857.9,438.6l-74.4-40.7c-1.9-9.3-3-19-4-28.7c-3.6-33.3-9.5-89.7,10.2-123.3c20.1-34.2,29.2,68.4,29.8,75.3
		c0.9,10.2,0.7,20.9,2.2,31c0.1,0.5,0.4,3.9,1.5,3.3c0.5-0.3,0.9-1.1,1.1-1.7c6.9-16.5,7.4-37.5,12.4-54.7
		c9.5-32.2,65.6-175.9,107.5-162.2c12.5,4.1,4.6,30.5,1.2,41c-13.2,41.1-38.6,80.3-58.9,118.6c-6,11.4-11.7,22.9-17.9,34.2
		c-2.6,4.7-5.1,9.4-7.7,14.1c-0.8,1.5-3.7,5.2-2.3,4.5c5.2-2.3,30.8-35.9,36.3-41.6c28.6-30.1,58.7-59,90.5-84.5
		c8.5-6.8,40-36,48.6-26.9c24.6,25.9-7.6,49-23.9,59.5c-35.5,22.8-70.4,45.6-102.4,74.8c-5.7,5.2-27.2,22.8-26.6,32.2
		c0.3,5.2,29.2-2.8,32.4-3.2c17.7-2.4,107-37.2,91.3,18c-3.5,12.4-23.2,14.5-28.6,15.7c-20.4,4.3-75.6,1.3-92,13.3
		c-2.2,1.6,10.3,5.7,11.2,6c4.6,1.6,36.2,13.2,32.1,20C1922.8,440.7,1882.5,439.4,1857.9,438.6L1857.9,438.6z"/>
	<path class="st4" d="M1838.6,672.6l-40.6-22.2c-1.1-5.1-1.6-10.4-2.2-15.6c-2-18.2-5.2-49,5.6-67.3c11-18.7,15.9,37.3,16.2,41.1
		c0.5,5.6,0.4,11.4,1.2,16.9c0,0.3,0.2,2.1,0.8,1.8c0.3-0.2,0.5-0.6,0.6-0.9c3.8-9,4-20.5,6.8-29.8c5.2-17.6,35.8-96,58.7-88.5
		c6.8,2.2,2.5,16.6,0.7,22.4c-7.2,22.4-21.1,43.8-32.1,64.7c-3.3,6.2-6.4,12.5-9.8,18.6c-1.4,2.6-2.8,5.1-4.2,7.7
		c-0.5,0.8-2,2.8-1.2,2.5c2.8-1.3,16.8-19.6,19.8-22.7c15.6-16.4,32-32.2,49.4-46.1c4.6-3.7,21.8-19.6,26.5-14.7
		c13.4,14.1-4.2,26.8-13.1,32.5c-19.4,12.4-38.4,24.9-55.9,40.8c-3.1,2.9-14.9,12.4-14.5,17.6c0.2,2.8,15.9-1.5,17.7-1.8
		c9.7-1.3,58.4-20.3,49.8,9.8c-1.9,6.8-12.7,7.9-15.6,8.5c-11.2,2.3-41.2,0.7-50.2,7.2c-1.2,0.9,5.6,3.1,6.1,3.3
		c2.5,0.9,19.7,7.2,17.5,10.9C1874.1,673.7,1852,673,1838.6,672.6L1838.6,672.6z"/>
	<path class="st4" d="M203.7,1113.4l46.3-0.4c3.3-4,6.4-8.4,9.3-12.7c10.4-15.1,27.8-40.7,27-61.9c-0.8-21.6-31.7,25.3-33.8,28.5
		c-3.1,4.7-5.7,9.9-9.1,14.3c-0.2,0.2-1.2,1.8-1.6,1.2c-0.2-0.3-0.1-0.8-0.1-1.1c0.9-9.7,6.1-19.9,8.1-29.5
		c3.8-17.9,13.9-101.5-9.8-105.7c-7.1-1.3-10.1,13.5-11.2,19.4c-4.3,23.2-2.2,48.6-2.3,72.2c0,7-0.3,14-0.2,21c0,2.9,0,5.8,0.1,8.8
		c0,0.9,0.4,3.4-0.1,2.8c-1.9-2.5-5.5-25.2-6.7-29.4c-6-21.9-13-43.5-21.7-64c-2.3-5.4-9.9-27.6-16.4-25.5
		c-18.5,6.1-9,25.5-3.9,34.8c11.2,20.1,22.1,40.1,29.9,62.4c1.4,4,7.2,18,4.5,22.4c-1.5,2.4-13.3-8.9-14.8-9.9
		c-7.9-5.7-41.8-45.5-48.5-14.9c-1.5,6.9,7.4,13,9.7,14.9c8.7,7.3,36,20.2,40.8,30.2c0.6,1.3-6.4,0.1-6.9,0
		c-2.6-0.4-20.8-3-20.6,1.3C171.9,1097.7,191.7,1107.4,203.7,1113.4L203.7,1113.4z"/>
	<path class="st5" d="M1724.8,490.9c-5.6,2.9-51.1,29.1-32.5,121.4c19.8,98.3,105.9,94,105.9,94c-47.9,117.4,33.8,128.9,33.8,128.9
		c20.9-0.6,40.5-4.6,58.9-11.2c-89-59.9-49.3-74.8-49.3-74.8c18.8,41.6,52,57.6,74.3,63.7c20.8-10.9,39.9-25.1,57.4-41.5
		c-36,0.2-96-4.2-116.2-34.3c-26.1-39.1,78.4,10.8,132,18.4c14.7-15.7,28-32.9,40.1-50.5c-12.3-0.4-24.6-1.5-36.3-3.8
		c-20.4-4.1-40.4-10.4-60.6-15.1c-7.6-1.7-18.4-3.6-24.4-9c-4-3.6-5.8-8.9-1.5-13c10.3-9.7,28.7-3.3,39.9,1.2
		c19.8,7.9,39.9,15,60.9,19c11.1,2.1,22.2,2.8,33.3,3.6c10.7-17,20.3-34.3,28.7-50.9c-9.2,0.3-18.4,0.1-27-1
		c-15.8-2-31.3-5.8-47-8.2c-5.9-0.9-14.3-1.7-18.8-5.5c-3-2.5-4.1-6.4-0.5-9.7c8.6-7.9,22.8-4,31.4-1.2c15.2,4.9,30.7,9.2,47,11.2
		c7.2,0.9,14.4,0.9,21.7,1c7.2-15,13.4-29.2,18.7-42.2c-1.5,0.3-3,0.7-4.4,0.9c-15.7,3-31.6,4.3-47.3,6.8c-5.9,1-14.2,2.8-19.6,0.6
		c-3.6-1.5-5.9-4.8-3.4-9.1c5.8-10.2,20.5-10.9,29.6-10.9c16-0.1,32.1-0.8,48.2-4c1.2-0.2,2.4-0.5,3.6-0.8
		c11-28.8,16.3-47.8,16.3-47.8c-25.3-14.8-49.9-26.5-73.6-35.7c-12.6,33.3-29.8,72.8-39.6,70.4c-11.9-2.9,10.8-40.1,24-76.1
		c-11-3.8-21.8-7.1-32.4-9.9c-11.3,32.5-36.9,101.2-49.6,98.1c-14.9-3.6,24.4-60.9,31.3-102.5c-16.1-3.5-31.7-5.9-46.7-7.4
		c-10.2,37.2-37.1,130.9-50.1,128.6c-15.5-2.7-17.2-28,21.4-130.5c-17.6-0.5-34.2,0.2-49.6,1.7c-5.2,41.2-20.2,146-36.5,144.2
		c-19-2.1-12.5-71.6,10.7-140.8c-33.4,5.6-59.7,14.6-77.1,21.9c6.6,37.2,19.3,118.6,4,118.5C1736.6,597.2,1724.4,531.9,1724.8,490.9
		L1724.8,490.9z"/>
	<path class="st6" d="M391.9,643.6c5.1,3.7,46.1,36.5,13.8,124.9c-34.4,94.2-118.8,76.9-118.8,76.9C316.6,968.8,234,967.9,234,967.9
		c-20.5-3.7-39.3-10.6-56.5-20c97-45.7,60-66.5,60-66.5c-24.9,38.3-60.1,49.1-83.1,51.8c-18.9-13.9-35.7-30.9-50.4-49.7
		c35.6,5.6,95.6,10.3,120-16.4c31.7-34.7-79.1-1.2-133.2-1.7c-12.1-17.8-22.7-36.7-32-56c12.2,1.4,24.5,2.2,36.4,1.7
		c20.8-1,41.5-4.2,62.2-5.8c7.8-0.6,18.7-0.7,25.5-5.2c4.5-3,7.1-7.9,3.4-12.6c-8.7-11.2-27.9-7.6-39.6-4.9
		c-20.8,4.8-41.7,8.8-63,9.6c-11.3,0.4-22.4-0.6-33.5-1.5c-8-18.5-14.9-36.9-20.7-54.6c9.1,1.7,18.2,2.8,26.9,3
		c16,0.4,31.8-1,47.7-1c6,0,14.4,0.5,19.4-2.6c3.3-2.1,5-5.7,2-9.5c-7.3-9.1-22-7.4-30.9-5.9c-15.8,2.6-31.7,4.5-48.2,4
		c-7.3-0.2-14.4-1.3-21.6-2.3c-4.8-15.9-8.9-30.9-12.1-44.5c1.4,0.6,2.8,1.1,4.3,1.6c15.1,5.3,30.6,9,45.8,13.9
		c5.7,1.8,13.6,4.9,19.3,3.6c3.8-0.9,6.5-3.9,4.8-8.4c-4.2-10.9-18.7-13.8-27.6-15.2c-15.8-2.5-31.6-5.6-47.1-11.2
		c-1.1-0.4-2.3-0.9-3.4-1.3C2.4,629.9,0,610.3,0,610.3c27.2-10.8,53.3-18.7,78.2-24.2c7.5,34.8,18.5,76.5,28.5,75.6
		c12.2-1.1-4.7-41.3-12.2-78.9c11.4-2.1,22.6-3.7,33.5-4.9c6.3,33.8,21.2,105.6,34.3,104.4c15.3-1.4-15-63.9-15.5-106.1
		c16.5-1,32.2-1.1,47.3-0.3c4.4,38.4,16.9,135,30.2,134.7c15.8-0.4,21.2-25.1-1.5-132.2c17.5,2.2,33.7,5.4,48.8,9.2
		c-1,41.5-2,147.4,14.3,148.1c19.1,0.8,23.1-68.9,10.6-140.8c32.1,10.6,56.8,23.4,73,33.2c-12.1,35.8-37,114.4-21.8,116.5
		C364.2,747,386.1,684.2,391.9,643.6L391.9,643.6z"/>
	<path class="st5" d="M1880.2,784.5c-1.3,0.5-12.2,5.4-10.1,26.7c2.3,22.6,21.8,23.6,21.8,23.6c-13.5,25.5,4.8,29.9,4.8,29.9
		c4.7,0.3,9.2-0.1,13.6-1.2c-18.8-15.5-9.5-18-9.5-18c3.3,9.8,10.5,14.2,15.4,16.1c4.9-2,9.6-4.8,13.9-8.1
		c-8.1-0.8-21.6-3.1-25.5-10.3c-5-9.4,17.5,4.2,29.4,7.1c3.7-3.2,7.1-6.8,10.2-10.5c-2.8-0.4-5.5-0.9-8.1-1.7
		c-4.5-1.4-8.9-3.3-13.4-4.8c-1.7-0.6-4.1-1.2-5.3-2.6c-0.8-0.9-1.1-2.1,0-3c2.5-2,6.6-0.1,9,1.2c4.3,2.2,8.7,4.3,13.3,5.7
		c2.5,0.7,5,1.1,7.4,1.6c2.8-3.6,5.4-7.3,7.6-10.9c-2.1-0.1-4.2-0.4-6.1-0.8c-3.5-0.8-6.9-2-10.4-2.9c-1.3-0.3-3.2-0.7-4.1-1.7
		c-0.6-0.6-0.8-1.5,0.1-2.2c2.1-1.6,5.2-0.4,7.1,0.4c3.3,1.5,6.7,2.8,10.4,3.6c1.6,0.4,3.2,0.5,4.9,0.7c2-3.2,3.7-6.3,5.2-9.1
		c-0.3,0-0.7,0.1-1,0.1c-3.6,0.3-7.2,0.3-10.9,0.5c-1.4,0.1-3.3,0.3-4.4-0.3c-0.8-0.4-1.2-1.2-0.6-2.1c1.5-2.2,4.9-2,6.9-1.8
		c3.6,0.3,7.3,0.5,11,0.2c0.3,0,0.5-0.1,0.8-0.1c3.1-6.2,4.8-10.4,4.8-10.4c-5.4-3.9-10.7-7.1-15.8-9.7c-3.6,7.2-8.4,15.8-10.5,15
		c-2.6-0.9,3.3-8.8,7.1-16.7c-2.4-1.1-4.8-2.1-7.1-3c-3.3,7.1-10.6,22-13.4,21.1c-3.3-1.2,6.9-13.2,9.4-22.5c-3.6-1.2-7-2-10.4-2.7
		c-3.1,8.2-11.3,28.8-14.2,27.9c-3.4-1-3.3-6.7,7.8-29c-4-0.5-7.7-0.7-11.2-0.7c-2.1,9.2-7.8,32.5-11.5,31.8
		c-4.2-0.9-1.2-16.5,5.6-31.6c-7.7,0.5-13.8,2-17.9,3.2c0.7,8.6,1.7,27.2-1.7,26.9C1880.5,808.8,1879.2,793.7,1880.2,784.5
		L1880.2,784.5z"/>
	<path class="st7" d="M1979.5,573.6c-31.5,18.3-170.9,110-266.7,189.6c-35.3,29.4-64.7,57.2-80.8,79c-7.5,10.3-12.1,19.4-13.4,26.9
		c-0.5,2.7,1.4,5.3,4.1,5.8c2.7,0.5,5.3-1.4,5.8-4.1c1.4-8.9,8.6-20.3,19.7-33.7c16.3-19.7,41-43.1,69.8-67.7
		c94.3-80.7,232.1-174.1,263.2-192.8c0.8-0.5,1.1-1.5,0.6-2.3S1980.3,573.1,1979.5,573.6L1979.5,573.6z"/>
	<path class="st8" d="M125.5,689.6c27.9,23.2,150.1,136.3,231.2,230.3c24.7,28.6,45.6,55.5,58.8,77.4c8.9,14.9,14.3,27.3,14.4,36.3
		c0,2.8,2.3,5,5.1,4.9c2.8,0,5-2.3,4.9-5.1c-0.2-7.6-3.3-17.3-9.2-28.6c-12.5-24-37.4-55.9-67.9-90.3
		c-82.7-93.1-206.7-204.8-235-227.6c-0.7-0.6-1.8-0.5-2.4,0.2C124.7,687.9,124.8,689,125.5,689.6L125.5,689.6z"/>
	<path class="st7" d="M1930.8,811.9c-5.3,2.4-17.2,10.3-33,18.3c-6.9,3.5-14.6,7.1-22.8,10.2c-19.4,7.4-41.3,12.1-54.6,17.2
		c-4,1.5-7.3,3.1-9.5,4.8c-1.8,1.3-3,2.7-3.6,4.1c-0.6,1.3,0,2.8,1.2,3.4c1.3,0.6,2.8,0,3.4-1.2c0.5-1.1,1.6-2,3-3
		c1.9-1.2,4.3-2.4,7.2-3.6c13.1-5.4,34.9-10.6,54.1-18.5c8.2-3.4,15.9-7.2,22.8-10.9c15.5-8.4,27.2-16.5,32.5-19.1
		c0.4-0.2,0.6-0.7,0.4-1.2C1931.7,811.9,1931.2,811.7,1930.8,811.9L1930.8,811.9z"/>
	<path class="st4" d="M1929.9,1113.4l-46.3-0.4c-3.3-4-6.4-8.4-9.3-12.7c-10.4-15.1-27.8-40.7-27-61.9c0.8-21.6,31.7,25.3,33.8,28.5
		c3.1,4.7,5.7,9.9,9.1,14.3c0.2,0.2,1.2,1.8,1.6,1.2c0.2-0.3,0.1-0.8,0.1-1.1c-0.9-9.7-6.1-19.9-8.1-29.5
		c-3.8-17.9-13.9-101.5,9.8-105.7c7.1-1.3,10.1,13.5,11.2,19.4c4.3,23.2,2.2,48.6,2.3,72.2c0,7,0.3,14,0.2,21c0,2.9,0,5.8-0.1,8.8
		c0,0.9-0.4,3.4,0.1,2.8c1.9-2.5,5.5-25.2,6.7-29.4c6-21.9,12.9-43.5,21.7-64c2.3-5.4,9.9-27.6,16.4-25.5c18.5,6.1,9,25.5,3.9,34.8
		c-11.2,20.1-22.1,40.1-29.9,62.4c-1.4,4-7.2,18-4.5,22.4c1.5,2.4,13.3-8.9,14.8-9.9c7.9-5.7,41.8-45.5,48.5-14.9
		c1.5,6.9-7.4,13-9.7,14.9c-8.7,7.3-36,20.2-40.8,30.2c-0.6,1.3,6.4,0.1,6.9,0c2.6-0.4,20.8-3,20.6,1.3
		C1961.7,1097.7,1941.9,1107.4,1929.9,1113.4L1929.9,1113.4z"/>
	<path class="st9" d="M1854.1,113.3c0-9.9-4.2-19.5-11.6-26.5c-7.4-7-17.5-11-28-11c-220,0-1291.5,0-1511.6,0
		c-10.5,0-20.5,3.9-28,11c-7.4,7-11.6,16.5-11.6,26.5c0,159.8,0,783.5,0,943.3c0,9.9,4.2,19.5,11.6,26.5c7.4,7,17.5,11,28,11
		c220,0,1291.5,0,1511.6,0c10.5,0,20.5-3.9,28-11c7.4-7,11.6-16.5,11.6-26.5C1854.1,896.8,1854.1,273.1,1854.1,113.3L1854.1,113.3z"
		/>
	<g>
		<defs>
			<polygon id="SVGID_1_" points="486.8,177.6 263.5,177.6 263.5,1142.7 486.8,1142.7 486.8,177.6 			"/>
		</defs>
		<defs>
			<path id="SVGID_2_" d="M1854.1,113.3c0-9.9-4.2-19.5-11.6-26.5c-7.4-7-17.5-11-28-11c-220,0-1291.5,0-1511.6,0
				c-10.5,0-20.5,3.9-28,11c-7.4,7-11.6,16.5-11.6,26.5c0,159.8,0,783.5,0,943.3c0,9.9,4.2,19.5,11.6,26.5c7.4,7,17.5,11,28,11
				c220,0,1291.5,0,1511.6,0c10.5,0,20.5-3.9,28-11c7.4-7,11.6-16.5,11.6-26.5C1854.1,896.8,1854.1,273.1,1854.1,113.3L1854.1,113.3
				z"/>
		</defs>
		<clipPath id="SVGID_3_">
			<use xlink:href="#SVGID_1_"  style="overflow:visible;"/>
		</clipPath>
		<clipPath id="SVGID_4_" class="st10">
			<use xlink:href="#SVGID_2_"  style="overflow:visible;"/>
		</clipPath>
		<path class="st11" d="M401.8,313.6v-68H263.5v68H401.8L401.8,313.6z M401.8,245.6v-68H263.5v68H401.8L401.8,245.6z M415.5,377.3
			h-152V441h152V377.3L415.5,377.3z M415.5,568.3h-152V632h152V568.3L415.5,568.3z M415.5,823h-152v63.7h152V823L415.5,823z
			 M415.5,441h-152v63.7h152V441L415.5,441z M415.5,632h-152v63.7h152V632L415.5,632z M415.5,886.7h-152v63.7h152V886.7L415.5,886.7
			z M415.5,504.6h-152v63.7h152V504.6L415.5,504.6z M415.5,759.4h-152V823h152V759.4L415.5,759.4z M415.5,695.7h-152v63.7h152V695.7
			L415.5,695.7z M415.5,950.4h-152v63.7h152V950.4L415.5,950.4z M415.5,1014.1h-152v63.7h152V1014.1L415.5,1014.1z M486.8,177.6
			H263.5v135.9h223.3V177.6L486.8,177.6z M486.8,377.3h-71.3V441h71.3V377.3L486.8,377.3z M486.8,568.3h-71.3V632h71.3V568.3
			L486.8,568.3z M486.8,823h-71.3v63.7h71.3V823L486.8,823z M486.8,441h-71.3v63.7h71.3V441L486.8,441z M486.8,632h-71.3v63.7h71.3
			V632L486.8,632z M486.8,886.7h-71.3v63.7h71.3V886.7L486.8,886.7z M486.8,504.6h-71.3v63.7h71.3V504.6L486.8,504.6z M486.8,759.4
			h-71.3V823h71.3V759.4L486.8,759.4z M486.8,695.7h-71.3v63.7h71.3V695.7L486.8,695.7z M486.8,950.4h-71.3v63.7h71.3V950.4
			L486.8,950.4z M486.8,1014.1h-71.3v63.7h71.3V1014.1L486.8,1014.1z"/>
	</g>
	<g>
		<defs>
			<path id="SVGID_5_" d="M1854.1,113.3c0-9.9-4.2-19.5-11.6-26.5c-7.4-7-17.5-11-28-11c-220,0-1291.5,0-1511.6,0
				c-10.5,0-20.5,3.9-28,11c-7.4,7-11.6,16.5-11.6,26.5c0,159.8,0,783.5,0,943.3c0,9.9,4.2,19.5,11.6,26.5c7.4,7,17.5,11,28,11
				c220,0,1291.5,0,1511.6,0c10.5,0,20.5-3.9,28-11c7.4-7,11.6-16.5,11.6-26.5C1854.1,896.8,1854.1,273.1,1854.1,113.3L1854.1,113.3
				z"/>
		</defs>
		<clipPath id="SVGID_6_">
			<use xlink:href="#SVGID_5_"  style="overflow:visible;"/>
		</clipPath>
		<polygon class="st12" points="486.8,177.6 263.5,177.6 263.5,1142.7 486.8,1142.7 486.8,177.6 		"/>
		<path class="st13" d="M359.2,209.7c0-0.5-0.2-0.9-0.5-1.3c-0.3-0.3-0.8-0.5-1.3-0.5c-10.3,0-62.5,0-72.8,0c-0.5,0-0.9,0.2-1.3,0.5
			c-0.3,0.3-0.5,0.8-0.5,1.3c0,3.2,0,9.8,0,12.9c0,0.5,0.2,0.9,0.5,1.3c0.3,0.3,0.8,0.5,1.3,0.5c10.3,0,62.5,0,72.8,0
			c0.5,0,0.9-0.2,1.3-0.5c0.3-0.3,0.5-0.8,0.5-1.3C359.2,219.5,359.2,212.9,359.2,209.7L359.2,209.7z"/>
		<path class="st13" d="M467.2,241.6c0-0.5-0.2-0.9-0.5-1.3c-0.3-0.3-0.8-0.5-1.3-0.5c-7.3,0-34.8,0-42.1,0c-0.5,0-0.9,0.2-1.3,0.5
			c-0.3,0.3-0.5,0.8-0.5,1.3c0,3.2,0,9.8,0,12.9c0,0.5,0.2,0.9,0.5,1.3c0.3,0.3,0.8,0.5,1.3,0.5c7.3,0,34.8,0,42.1,0
			c0.5,0,0.9-0.2,1.3-0.5c0.3-0.3,0.5-0.8,0.5-1.3C467.2,251.3,467.2,244.8,467.2,241.6L467.2,241.6z"/>
		<path class="st13" d="M674,273.5c0-0.5-0.2-0.9-0.5-1.3c-0.3-0.3-0.8-0.5-1.3-0.5c-10.3,0-62.5,0-72.8,0c-0.5,0-0.9,0.2-1.3,0.5
			c-0.3,0.3-0.5,0.8-0.5,1.3c0,3.2,0,9.8,0,12.9c0,0.5,0.2,0.9,0.5,1.3c0.3,0.3,0.8,0.5,1.3,0.5c10.3,0,62.5,0,72.8,0
			c0.5,0,0.9-0.2,1.3-0.5c0.3-0.3,0.5-0.8,0.5-1.3C674,283.2,674,276.7,674,273.5L674,273.5z"/>
		<path class="st13" d="M945.8,273.5c0-0.5-0.2-0.9-0.5-1.3c-0.3-0.3-0.8-0.5-1.3-0.5c-10.3,0-62.5,0-72.8,0c-0.5,0-0.9,0.2-1.3,0.5
			c-0.3,0.3-0.5,0.8-0.5,1.3c0,3.2,0,9.8,0,12.9c0,0.5,0.2,0.9,0.5,1.3c0.3,0.3,0.8,0.5,1.3,0.5c10.3,0,62.5,0,72.8,0
			c0.5,0,0.9-0.2,1.3-0.5c0.3-0.3,0.5-0.8,0.5-1.3C945.8,283.2,945.8,276.7,945.8,273.5L945.8,273.5z"/>
		<path class="st13" d="M1217.7,273.5c0-0.5-0.2-0.9-0.5-1.3c-0.3-0.3-0.8-0.5-1.3-0.5c-10.3,0-62.5,0-72.8,0
			c-0.5,0-0.9,0.2-1.3,0.5c-0.3,0.3-0.5,0.8-0.5,1.3c0,3.2,0,9.8,0,12.9c0,0.5,0.2,0.9,0.5,1.3c0.3,0.3,0.8,0.5,1.3,0.5
			c10.3,0,62.5,0,72.8,0c0.5,0,0.9-0.2,1.3-0.5c0.3-0.3,0.5-0.8,0.5-1.3C1217.7,283.2,1217.7,276.7,1217.7,273.5L1217.7,273.5z"/>
		<path class="st13" d="M1489.6,273.5c0-0.5-0.2-0.9-0.5-1.3c-0.3-0.3-0.8-0.5-1.3-0.5c-10.3,0-62.5,0-72.8,0
			c-0.5,0-0.9,0.2-1.3,0.5c-0.3,0.3-0.5,0.8-0.5,1.3c0,3.2,0,9.8,0,12.9c0,0.5,0.2,0.9,0.5,1.3c0.3,0.3,0.8,0.5,1.3,0.5
			c10.3,0,62.5,0,72.8,0c0.5,0,0.9-0.2,1.3-0.5c0.3-0.3,0.5-0.8,0.5-1.3C1489.6,283.2,1489.6,276.7,1489.6,273.5L1489.6,273.5z"/>
		<path class="st13" d="M1752.2,273.5c0-0.5-0.2-0.9-0.5-1.3c-0.3-0.3-0.8-0.5-1.3-0.5c-10.3,0-62.5,0-72.8,0
			c-0.5,0-0.9,0.2-1.3,0.5c-0.3,0.3-0.5,0.8-0.5,1.3c0,3.2,0,9.8,0,12.9c0,0.5,0.2,0.9,0.5,1.3c0.3,0.3,0.8,0.5,1.3,0.5
			c10.3,0,62.5,0,72.8,0c0.5,0,0.9-0.2,1.3-0.5c0.3-0.3,0.5-0.8,0.5-1.3C1752.2,283.2,1752.2,276.7,1752.2,273.5L1752.2,273.5z"/>
		<path class="st13" d="M378.9,464.9c0-0.5-0.2-0.9-0.5-1.3c-0.3-0.3-0.8-0.5-1.3-0.5c-10.3,0-62.5,0-72.8,0c-0.5,0-0.9,0.2-1.3,0.5
			c-0.3,0.3-0.5,0.8-0.5,1.3c0,3.2,0,9.8,0,12.9c0,0.5,0.2,0.9,0.5,1.3c0.3,0.3,0.8,0.5,1.3,0.5c10.3,0,62.5,0,72.8,0
			c0.5,0,0.9-0.2,1.3-0.5c0.3-0.3,0.5-0.8,0.5-1.3C378.9,474.6,378.9,468,378.9,464.9L378.9,464.9z"/>
		<path class="st13" d="M378.9,401.1c0-0.5-0.2-0.9-0.5-1.3c-0.3-0.3-0.8-0.5-1.3-0.5c-10.3,0-62.5,0-72.8,0c-0.5,0-0.9,0.2-1.3,0.5
			c-0.3,0.3-0.5,0.8-0.5,1.3c0,3.2,0,9.8,0,12.9c0,0.5,0.2,0.9,0.5,1.3c0.3,0.3,0.8,0.5,1.3,0.5c10.3,0,62.5,0,72.8,0
			c0.5,0,0.9-0.2,1.3-0.5c0.3-0.3,0.5-0.8,0.5-1.3C378.9,410.8,378.9,404.2,378.9,401.1L378.9,401.1z"/>
		<path class="st13" d="M378.9,528.7c0-0.5-0.2-0.9-0.5-1.3c-0.3-0.3-0.8-0.5-1.3-0.5c-10.3,0-62.5,0-72.8,0c-0.5,0-0.9,0.2-1.3,0.5
			c-0.3,0.3-0.5,0.8-0.5,1.3c0,3.2,0,9.8,0,12.9c0,0.5,0.2,0.9,0.5,1.3c0.3,0.3,0.8,0.5,1.3,0.5c10.3,0,62.5,0,72.8,0
			c0.5,0,0.9-0.2,1.3-0.5c0.3-0.3,0.5-0.8,0.5-1.3C378.9,538.4,378.9,531.8,378.9,528.7L378.9,528.7z"/>
		<path class="st13" d="M378.9,592.5c0-0.5-0.2-0.9-0.5-1.3c-0.3-0.3-0.8-0.5-1.3-0.5c-10.3,0-62.5,0-72.8,0c-0.5,0-0.9,0.2-1.3,0.5
			c-0.3,0.3-0.5,0.8-0.5,1.3c0,3.2,0,9.8,0,12.9c0,0.5,0.2,0.9,0.5,1.3c0.3,0.3,0.8,0.5,1.3,0.5c10.3,0,62.5,0,72.8,0
			c0.5,0,0.9-0.2,1.3-0.5c0.3-0.3,0.5-0.8,0.5-1.3C378.9,602.2,378.9,595.6,378.9,592.5L378.9,592.5z"/>
		<path class="st13" d="M378.9,656.3c0-0.5-0.2-0.9-0.5-1.3c-0.3-0.3-0.8-0.5-1.3-0.5c-10.3,0-62.5,0-72.8,0c-0.5,0-0.9,0.2-1.3,0.5
			c-0.3,0.3-0.5,0.8-0.5,1.3c0,3.2,0,9.8,0,12.9c0,0.5,0.2,0.9,0.5,1.3s0.8,0.5,1.3,0.5c10.3,0,62.5,0,72.8,0c0.5,0,0.9-0.2,1.3-0.5
			c0.3-0.3,0.5-0.8,0.5-1.3C378.9,666,378.9,659.4,378.9,656.3L378.9,656.3z"/>
		<path class="st13" d="M378.9,720c0-0.5-0.2-0.9-0.5-1.3c-0.3-0.3-0.8-0.5-1.3-0.5c-10.3,0-62.5,0-72.8,0c-0.5,0-0.9,0.2-1.3,0.5
			c-0.3,0.3-0.5,0.8-0.5,1.3c0,3.2,0,9.8,0,12.9c0,0.5,0.2,0.9,0.5,1.3c0.3,0.3,0.8,0.5,1.3,0.5c10.3,0,62.5,0,72.8,0
			c0.5,0,0.9-0.2,1.3-0.5c0.3-0.3,0.5-0.8,0.5-1.3C378.9,729.8,378.9,723.2,378.9,720L378.9,720z"/>
		<path class="st13" d="M378.9,783.8c0-0.5-0.2-0.9-0.5-1.3c-0.3-0.3-0.8-0.5-1.3-0.5c-10.3,0-62.5,0-72.8,0c-0.5,0-0.9,0.2-1.3,0.5
			c-0.3,0.3-0.5,0.8-0.5,1.3c0,3.2,0,9.8,0,12.9c0,0.5,0.2,0.9,0.5,1.3c0.3,0.3,0.8,0.5,1.3,0.5c10.3,0,62.5,0,72.8,0
			c0.5,0,0.9-0.2,1.3-0.5c0.3-0.3,0.5-0.8,0.5-1.3C378.9,793.6,378.9,787,378.9,783.8L378.9,783.8z"/>
		<path class="st13" d="M378.9,847.6c0-0.5-0.2-0.9-0.5-1.3c-0.3-0.3-0.8-0.5-1.3-0.5c-10.3,0-62.5,0-72.8,0c-0.5,0-0.9,0.2-1.3,0.5
			c-0.3,0.3-0.5,0.8-0.5,1.3c0,3.2,0,9.8,0,12.9c0,0.5,0.2,0.9,0.5,1.3c0.3,0.3,0.8,0.5,1.3,0.5c10.3,0,62.5,0,72.8,0
			c0.5,0,0.9-0.2,1.3-0.5c0.3-0.3,0.5-0.8,0.5-1.3C378.9,857.4,378.9,850.8,378.9,847.6L378.9,847.6z"/>
		<path class="st13" d="M378.9,911.4c0-0.5-0.2-0.9-0.5-1.3c-0.3-0.3-0.8-0.5-1.3-0.5c-10.3,0-62.5,0-72.8,0c-0.5,0-0.9,0.2-1.3,0.5
			s-0.5,0.8-0.5,1.3c0,3.2,0,9.8,0,12.9c0,0.5,0.2,0.9,0.5,1.3s0.8,0.5,1.3,0.5c10.3,0,62.5,0,72.8,0c0.5,0,0.9-0.2,1.3-0.5
			c0.3-0.3,0.5-0.8,0.5-1.3C378.9,921.2,378.9,914.6,378.9,911.4L378.9,911.4z"/>
		<path class="st13" d="M378.9,975.2c0-0.5-0.2-0.9-0.5-1.3c-0.3-0.3-0.8-0.5-1.3-0.5c-10.3,0-62.5,0-72.8,0c-0.5,0-0.9,0.2-1.3,0.5
			s-0.5,0.8-0.5,1.3c0,3.2,0,9.8,0,12.9c0,0.5,0.2,0.9,0.5,1.3c0.3,0.3,0.8,0.5,1.3,0.5c10.3,0,62.5,0,72.8,0c0.5,0,0.9-0.2,1.3-0.5
			c0.3-0.3,0.5-0.8,0.5-1.3C378.9,985,378.9,978.4,378.9,975.2L378.9,975.2z"/>
		<path class="st13" d="M378.9,1039c0-0.5-0.2-0.9-0.5-1.3c-0.3-0.3-0.8-0.5-1.3-0.5c-10.3,0-62.5,0-72.8,0c-0.5,0-0.9,0.2-1.3,0.5
			s-0.5,0.8-0.5,1.3c0,3.2,0,9.8,0,12.9c0,0.5,0.2,0.9,0.5,1.3c0.3,0.3,0.8,0.5,1.3,0.5c10.3,0,62.5,0,72.8,0c0.5,0,0.9-0.2,1.3-0.5
			c0.3-0.3,0.5-0.8,0.5-1.3C378.9,1048.8,378.9,1042.2,378.9,1039L378.9,1039z"/>
		<path class="st13" d="M469.9,337.3c0-0.5-0.2-0.9-0.5-1.3c-0.3-0.3-0.8-0.5-1.3-0.5c-17.9,0-165.7,0-183.6,0
			c-0.5,0-0.9,0.2-1.3,0.5c-0.3,0.3-0.5,0.8-0.5,1.3c0,3.2,0,9.8,0,12.9c0,0.5,0.2,0.9,0.5,1.3c0.3,0.3,0.8,0.5,1.3,0.5
			c17.9,0,165.7,0,183.6,0c0.5,0,0.9-0.2,1.3-0.5c0.3-0.3,0.5-0.8,0.5-1.3C469.9,347,469.9,340.4,469.9,337.3L469.9,337.3z"/>
		<path class="st13" d="M718.9,209.7c0-0.5-0.2-0.9-0.5-1.3c-0.3-0.3-0.8-0.5-1.3-0.5c-17.9,0-165.7,0-183.6,0
			c-0.5,0-0.9,0.2-1.3,0.5c-0.3,0.3-0.5,0.8-0.5,1.3c0,3.2,0,9.8,0,12.9c0,0.5,0.2,0.9,0.5,1.3c0.3,0.3,0.8,0.5,1.3,0.5
			c17.9,0,165.7,0,183.6,0c0.5,0,0.9-0.2,1.3-0.5c0.3-0.3,0.5-0.8,0.5-1.3C718.9,219.5,718.9,212.9,718.9,209.7L718.9,209.7z"/>
		<path class="st13" d="M467.2,464.9c0-0.5-0.2-0.9-0.5-1.3c-0.3-0.3-0.8-0.5-1.3-0.5c-5.3,0-20.9,0-26.2,0c-0.5,0-0.9,0.2-1.3,0.5
			c-0.3,0.3-0.5,0.8-0.5,1.3c0,3.2,0,9.8,0,12.9c0,0.5,0.2,0.9,0.5,1.3c0.3,0.3,0.8,0.5,1.3,0.5c5.3,0,20.9,0,26.2,0
			c0.5,0,0.9-0.2,1.3-0.5c0.3-0.3,0.5-0.8,0.5-1.3C467.2,474.6,467.2,468,467.2,464.9L467.2,464.9z"/>
		<path class="st13" d="M467.2,401.1c0-0.5-0.2-0.9-0.5-1.3c-0.3-0.3-0.8-0.5-1.3-0.5c-5.3,0-20.9,0-26.2,0c-0.5,0-0.9,0.2-1.3,0.5
			c-0.3,0.3-0.5,0.8-0.5,1.3c0,3.2,0,9.8,0,12.9c0,0.5,0.2,0.9,0.5,1.3c0.3,0.3,0.8,0.5,1.3,0.5c5.3,0,20.9,0,26.2,0
			c0.5,0,0.9-0.2,1.3-0.5c0.3-0.3,0.5-0.8,0.5-1.3C467.2,410.8,467.2,404.2,467.2,401.1L467.2,401.1z"/>
		<path class="st13" d="M467.2,528.7c0-0.5-0.2-0.9-0.5-1.3c-0.3-0.3-0.8-0.5-1.3-0.5c-5.3,0-20.9,0-26.2,0c-0.5,0-0.9,0.2-1.3,0.5
			c-0.3,0.3-0.5,0.8-0.5,1.3c0,3.2,0,9.8,0,12.9c0,0.5,0.2,0.9,0.5,1.3c0.3,0.3,0.8,0.5,1.3,0.5c5.3,0,20.9,0,26.2,0
			c0.5,0,0.9-0.2,1.3-0.5c0.3-0.3,0.5-0.8,0.5-1.3C467.2,538.4,467.2,531.8,467.2,528.7L467.2,528.7z"/>
		<path class="st13" d="M467.2,592.5c0-0.5-0.2-0.9-0.5-1.3c-0.3-0.3-0.8-0.5-1.3-0.5c-5.3,0-20.9,0-26.2,0c-0.5,0-0.9,0.2-1.3,0.5
			c-0.3,0.3-0.5,0.8-0.5,1.3c0,3.2,0,9.8,0,12.9c0,0.5,0.2,0.9,0.5,1.3c0.3,0.3,0.8,0.5,1.3,0.5c5.3,0,20.9,0,26.2,0
			c0.5,0,0.9-0.2,1.3-0.5c0.3-0.3,0.5-0.8,0.5-1.3C467.2,602.2,467.2,595.6,467.2,592.5L467.2,592.5z"/>
		<path class="st13" d="M467.2,656.3c0-0.5-0.2-0.9-0.5-1.3c-0.3-0.3-0.8-0.5-1.3-0.5c-5.3,0-20.9,0-26.2,0c-0.5,0-0.9,0.2-1.3,0.5
			c-0.3,0.3-0.5,0.8-0.5,1.3c0,3.2,0,9.8,0,12.9c0,0.5,0.2,0.9,0.5,1.3c0.3,0.3,0.8,0.5,1.3,0.5c5.3,0,20.9,0,26.2,0
			c0.5,0,0.9-0.2,1.3-0.5c0.3-0.3,0.5-0.8,0.5-1.3C467.2,666,467.2,659.4,467.2,656.3L467.2,656.3z"/>
		<path class="st13" d="M467.2,720c0-0.5-0.2-0.9-0.5-1.3c-0.3-0.3-0.8-0.5-1.3-0.5c-5.3,0-20.9,0-26.2,0c-0.5,0-0.9,0.2-1.3,0.5
			c-0.3,0.3-0.5,0.8-0.5,1.3c0,3.2,0,9.8,0,12.9c0,0.5,0.2,0.9,0.5,1.3c0.3,0.3,0.8,0.5,1.3,0.5c5.3,0,20.9,0,26.2,0
			c0.5,0,0.9-0.2,1.3-0.5c0.3-0.3,0.5-0.8,0.5-1.3C467.2,729.8,467.2,723.2,467.2,720L467.2,720z"/>
		<path class="st13" d="M467.2,783.8c0-0.5-0.2-0.9-0.5-1.3c-0.3-0.3-0.8-0.5-1.3-0.5c-5.3,0-20.9,0-26.2,0c-0.5,0-0.9,0.2-1.3,0.5
			c-0.3,0.3-0.5,0.8-0.5,1.3c0,3.2,0,9.8,0,12.9c0,0.5,0.2,0.9,0.5,1.3c0.3,0.3,0.8,0.5,1.3,0.5c5.3,0,20.9,0,26.2,0
			c0.5,0,0.9-0.2,1.3-0.5c0.3-0.3,0.5-0.8,0.5-1.3C467.2,793.6,467.2,787,467.2,783.8L467.2,783.8z"/>
		<path class="st13" d="M467.2,847.6c0-0.5-0.2-0.9-0.5-1.3c-0.3-0.3-0.8-0.5-1.3-0.5c-5.3,0-20.9,0-26.2,0c-0.5,0-0.9,0.2-1.3,0.5
			c-0.3,0.3-0.5,0.8-0.5,1.3c0,3.2,0,9.8,0,12.9c0,0.5,0.2,0.9,0.5,1.3c0.3,0.3,0.8,0.5,1.3,0.5c5.3,0,20.9,0,26.2,0
			c0.5,0,0.9-0.2,1.3-0.5c0.3-0.3,0.5-0.8,0.5-1.3C467.2,857.4,467.2,850.8,467.2,847.6L467.2,847.6z"/>
		<path class="st13" d="M467.2,911.4c0-0.5-0.2-0.9-0.5-1.3c-0.3-0.3-0.8-0.5-1.3-0.5c-5.3,0-20.9,0-26.2,0c-0.5,0-0.9,0.2-1.3,0.5
			c-0.3,0.3-0.5,0.8-0.5,1.3c0,3.2,0,9.8,0,12.9c0,0.5,0.2,0.9,0.5,1.3c0.3,0.3,0.8,0.5,1.3,0.5c5.3,0,20.9,0,26.2,0
			c0.5,0,0.9-0.2,1.3-0.5c0.3-0.3,0.5-0.8,0.5-1.3C467.2,921.2,467.2,914.6,467.2,911.4L467.2,911.4z"/>
		<path class="st13" d="M467.2,975.2c0-0.5-0.2-0.9-0.5-1.3c-0.3-0.3-0.8-0.5-1.3-0.5c-5.3,0-20.9,0-26.2,0c-0.5,0-0.9,0.2-1.3,0.5
			c-0.3,0.3-0.5,0.8-0.5,1.3c0,3.2,0,9.8,0,12.9c0,0.5,0.2,0.9,0.5,1.3c0.3,0.3,0.8,0.5,1.3,0.5c5.3,0,20.9,0,26.2,0
			c0.5,0,0.9-0.2,1.3-0.5c0.3-0.3,0.5-0.8,0.5-1.3C467.2,985,467.2,978.4,467.2,975.2L467.2,975.2z"/>
		<path class="st13" d="M467.2,1039c0-0.5-0.2-0.9-0.5-1.3c-0.3-0.3-0.8-0.5-1.3-0.5c-5.3,0-20.9,0-26.2,0c-0.5,0-0.9,0.2-1.3,0.5
			c-0.3,0.3-0.5,0.8-0.5,1.3c0,3.2,0,9.8,0,12.9c0,0.5,0.2,0.9,0.5,1.3c0.3,0.3,0.8,0.5,1.3,0.5c5.3,0,20.9,0,26.2,0
			c0.5,0,0.9-0.2,1.3-0.5c0.3-0.3,0.5-0.8,0.5-1.3C467.2,1048.8,467.2,1042.2,467.2,1039L467.2,1039z"/>
	</g>
	<g>
		<defs>
			<polygon id="SVGID_7_" points="1854.1,184.3 508.4,184.3 508.4,248.1 1854.1,248.1 1854.1,184.3 			"/>
		</defs>
		<defs>
			<path id="SVGID_8_" d="M1854.1,113.3c0-9.9-4.2-19.5-11.6-26.5c-7.4-7-17.5-11-28-11c-220,0-1291.5,0-1511.6,0
				c-10.5,0-20.5,3.9-28,11c-7.4,7-11.6,16.5-11.6,26.5c0,159.8,0,783.5,0,943.3c0,9.9,4.2,19.5,11.6,26.5c7.4,7,17.5,11,28,11
				c220,0,1291.5,0,1511.6,0c10.5,0,20.5-3.9,28-11c7.4-7,11.6-16.5,11.6-26.5C1854.1,896.8,1854.1,273.1,1854.1,113.3L1854.1,113.3
				z"/>
		</defs>
		<clipPath id="SVGID_9_">
			<use xlink:href="#SVGID_7_"  style="overflow:visible;"/>
		</clipPath>
		<clipPath id="SVGID_10_" class="st14">
			<use xlink:href="#SVGID_8_"  style="overflow:visible;"/>
		</clipPath>
		<polygon class="st15" points="1854.1,184.3 1585,184.3 1585,248.1 1854.1,248.1 1854.1,184.3 		"/>
	</g>
	<g>
		<defs>
			<path id="SVGID_11_" d="M1854.1,113.3c0-9.9-4.2-19.5-11.6-26.5c-7.4-7-17.5-11-28-11c-220,0-1291.5,0-1511.6,0
				c-10.5,0-20.5,3.9-28,11c-7.4,7-11.6,16.5-11.6,26.5c0,159.8,0,783.5,0,943.3c0,9.9,4.2,19.5,11.6,26.5c7.4,7,17.5,11,28,11
				c220,0,1291.5,0,1511.6,0c10.5,0,20.5-3.9,28-11c7.4-7,11.6-16.5,11.6-26.5C1854.1,896.8,1854.1,273.1,1854.1,113.3L1854.1,113.3
				z"/>
		</defs>
		<clipPath id="SVGID_12_">
			<use xlink:href="#SVGID_11_"  style="overflow:visible;"/>
		</clipPath>
		<polygon class="st16" points="1854.1,184.3 508.4,184.3 508.4,248.1 1854.1,248.1 1854.1,184.3 		"/>
	</g>
	<g>
		<defs>
			<polygon id="SVGID_13_" points="1854.1,248.1 508.4,248.1 508.4,311.8 1854.1,311.8 1854.1,248.1 			"/>
		</defs>
		<defs>
			<path id="SVGID_14_" d="M1854.1,113.3c0-9.9-4.2-19.5-11.6-26.5c-7.4-7-17.5-11-28-11c-220,0-1291.5,0-1511.6,0
				c-10.5,0-20.5,3.9-28,11c-7.4,7-11.6,16.5-11.6,26.5c0,159.8,0,783.5,0,943.3c0,9.9,4.2,19.5,11.6,26.5c7.4,7,17.5,11,28,11
				c220,0,1291.5,0,1511.6,0c10.5,0,20.5-3.9,28-11c7.4-7,11.6-16.5,11.6-26.5C1854.1,896.8,1854.1,273.1,1854.1,113.3L1854.1,113.3
				z"/>
		</defs>
		<clipPath id="SVGID_15_">
			<use xlink:href="#SVGID_13_"  style="overflow:visible;"/>
		</clipPath>
		<clipPath id="SVGID_16_" class="st17">
			<use xlink:href="#SVGID_14_"  style="overflow:visible;"/>
		</clipPath>
		<path class="st18" d="M777.5,248.1H508.4v63.8h269.2V248.1L777.5,248.1z M1046.7,248.1H777.5v63.8h269.2V248.1L1046.7,248.1z
			 M1315.8,248.1h-269.2v63.8h269.2V248.1L1315.8,248.1z M1585,248.1h-269.2v63.8H1585V248.1L1585,248.1z M1854.1,248.1H1585v63.8
			h269.2V248.1L1854.1,248.1z"/>
	</g>
	<g>
		<defs>
			<path id="SVGID_17_" d="M1854.1,113.3c0-9.9-4.2-19.5-11.6-26.5c-7.4-7-17.5-11-28-11c-220,0-1291.5,0-1511.6,0
				c-10.5,0-20.5,3.9-28,11c-7.4,7-11.6,16.5-11.6,26.5c0,159.8,0,783.5,0,943.3c0,9.9,4.2,19.5,11.6,26.5c7.4,7,17.5,11,28,11
				c220,0,1291.5,0,1511.6,0c10.5,0,20.5-3.9,28-11c7.4-7,11.6-16.5,11.6-26.5C1854.1,896.8,1854.1,273.1,1854.1,113.3L1854.1,113.3
				z"/>
		</defs>
		<clipPath id="SVGID_18_">
			<use xlink:href="#SVGID_17_"  style="overflow:visible;"/>
		</clipPath>
		<path class="st19" d="M1854.1,248.1H508.4v63.8h1345.8V248.1L1854.1,248.1z M1854.1,375.6H508.4v63.8h1345.8V375.6L1854.1,375.6z
			 M1854.1,567H508.4v63.8h1345.8V567L1854.1,567z M1854.1,758.4H508.4v63.8h1345.8V758.4L1854.1,758.4z M1854.1,439.4H508.4v63.8
			h1345.8V439.4L1854.1,439.4z M1854.1,630.8H508.4v63.8h1345.8V630.8L1854.1,630.8z M1854.1,822.2H508.4V886h1345.8V822.2
			L1854.1,822.2z M1854.1,949.8H508.4v63.8h1345.8V949.8L1854.1,949.8z M1854.1,503.2H508.4V567h1345.8V503.2L1854.1,503.2z
			 M1854.1,694.6H508.4v63.8h1345.8V694.6L1854.1,694.6z M1854.1,886H508.4v63.8h1345.8V886L1854.1,886z M1854.1,1013.6H508.4v63.8
			h1345.8V1013.6L1854.1,1013.6z M1854.1,311.8H508.4v63.8h1345.8V311.8L1854.1,311.8z"/>
		<path class="st20" d="M701.7,381.4c0-3.2-2.6-5.8-5.8-5.8c-14.2,0-50.6,0-64.8,0c-3.2,0-5.8,2.6-5.8,5.8c0,11.7,0,38,0,49.7
			c0,3.2,2.6,5.8,5.8,5.8c14.2,0,50.6,0,64.8,0c3.2,0,5.8-2.6,5.8-5.8C701.7,419.4,701.7,393.1,701.7,381.4L701.7,381.4z"/>
	</g>
	<g>
		<defs>
			<path id="SVGID_19_" d="M701.7,381.4c0-3.2-2.6-5.8-5.8-5.8c-14.2,0-50.6,0-64.8,0c-3.2,0-5.8,2.6-5.8,5.8c0,11.7,0,38,0,49.7
				c0,3.2,2.6,5.8,5.8,5.8c14.2,0,50.6,0,64.8,0c3.2,0,5.8-2.6,5.8-5.8C701.7,419.4,701.7,393.1,701.7,381.4L701.7,381.4z"/>
		</defs>
		<defs>
			<path id="SVGID_20_" d="M1854.1,113.3c0-9.9-4.2-19.5-11.6-26.5c-7.4-7-17.5-11-28-11c-220,0-1291.5,0-1511.6,0
				c-10.5,0-20.5,3.9-28,11c-7.4,7-11.6,16.5-11.6,26.5c0,159.8,0,783.5,0,943.3c0,9.9,4.2,19.5,11.6,26.5c7.4,7,17.5,11,28,11
				c220,0,1291.5,0,1511.6,0c10.5,0,20.5-3.9,28-11c7.4-7,11.6-16.5,11.6-26.5C1854.1,896.8,1854.1,273.1,1854.1,113.3L1854.1,113.3
				z"/>
		</defs>
		<clipPath id="SVGID_21_">
			<use xlink:href="#SVGID_19_"  style="overflow:visible;"/>
		</clipPath>
		<clipPath id="SVGID_22_" class="st21">
			<use xlink:href="#SVGID_20_"  style="overflow:visible;"/>
		</clipPath>
		<polygon class="st22" points="690.7,391.4 629.7,391.4 629.7,399.6 690.7,399.6 690.7,391.4 		"/>
		<polygon class="st22" points="648.4,412.9 629.7,412.9 629.7,421.1 648.4,421.1 648.4,412.9 		"/>
	</g>
	<g>
		<defs>
			<path id="SVGID_23_" d="M1854.1,113.3c0-9.9-4.2-19.5-11.6-26.5c-7.4-7-17.5-11-28-11c-220,0-1291.5,0-1511.6,0
				c-10.5,0-20.5,3.9-28,11c-7.4,7-11.6,16.5-11.6,26.5c0,159.8,0,783.5,0,943.3c0,9.9,4.2,19.5,11.6,26.5c7.4,7,17.5,11,28,11
				c220,0,1291.5,0,1511.6,0c10.5,0,20.5-3.9,28-11c7.4-7,11.6-16.5,11.6-26.5C1854.1,896.8,1854.1,273.1,1854.1,113.3L1854.1,113.3
				z"/>
		</defs>
		<clipPath id="SVGID_24_">
			<use xlink:href="#SVGID_23_"  style="overflow:visible;"/>
		</clipPath>
		<path class="st23" d="M828,446.5c0-3.2-2.6-5.8-5.8-5.8c-21.1,0-93.7,0-114.7,0c-3.2,0-5.8,2.6-5.8,5.8c0,11.7,0,38,0,49.7
			c0,3.2,2.6,5.8,5.8,5.8c21.1,0,93.7,0,114.7,0c3.2,0,5.8-2.6,5.8-5.8C828,484.5,828,458.2,828,446.5L828,446.5z"/>
	</g>
	<g>
		<defs>
			<path id="SVGID_25_" d="M828,446.5c0-3.2-2.6-5.8-5.8-5.8c-21.1,0-93.7,0-114.7,0c-3.2,0-5.8,2.6-5.8,5.8c0,11.7,0,38,0,49.7
				c0,3.2,2.6,5.8,5.8,5.8c21.1,0,93.7,0,114.7,0c3.2,0,5.8-2.6,5.8-5.8C828,484.5,828,458.2,828,446.5L828,446.5z"/>
		</defs>
		<defs>
			<path id="SVGID_26_" d="M1854.1,113.3c0-9.9-4.2-19.5-11.6-26.5c-7.4-7-17.5-11-28-11c-220,0-1291.5,0-1511.6,0
				c-10.5,0-20.5,3.9-28,11c-7.4,7-11.6,16.5-11.6,26.5c0,159.8,0,783.5,0,943.3c0,9.9,4.2,19.5,11.6,26.5c7.4,7,17.5,11,28,11
				c220,0,1291.5,0,1511.6,0c10.5,0,20.5-3.9,28-11c7.4-7,11.6-16.5,11.6-26.5C1854.1,896.8,1854.1,273.1,1854.1,113.3L1854.1,113.3
				z"/>
		</defs>
		<clipPath id="SVGID_27_">
			<use xlink:href="#SVGID_25_"  style="overflow:visible;"/>
		</clipPath>
		<clipPath id="SVGID_28_" class="st24">
			<use xlink:href="#SVGID_26_"  style="overflow:visible;"/>
		</clipPath>
		<polygon class="st25" points="809.7,456.5 708.9,456.5 708.9,464.7 809.7,464.7 809.7,456.5 		"/>
		<polygon class="st25" points="739.8,478 708.9,478 708.9,486.2 739.8,486.2 739.8,478 		"/>
	</g>
	<g>
		<defs>
			<path id="SVGID_29_" d="M1854.1,113.3c0-9.9-4.2-19.5-11.6-26.5c-7.4-7-17.5-11-28-11c-220,0-1291.5,0-1511.6,0
				c-10.5,0-20.5,3.9-28,11c-7.4,7-11.6,16.5-11.6,26.5c0,159.8,0,783.5,0,943.3c0,9.9,4.2,19.5,11.6,26.5c7.4,7,17.5,11,28,11
				c220,0,1291.5,0,1511.6,0c10.5,0,20.5-3.9,28-11c7.4-7,11.6-16.5,11.6-26.5C1854.1,896.8,1854.1,273.1,1854.1,113.3L1854.1,113.3
				z"/>
		</defs>
		<clipPath id="SVGID_30_">
			<use xlink:href="#SVGID_29_"  style="overflow:visible;"/>
		</clipPath>
		<path class="st26" d="M1778.1,1019.4c0-1.5-0.6-3-1.7-4.1c-1.1-1.1-2.6-1.7-4.1-1.7c-27.8,0-147.8,0-175.6,0c-1.5,0-3,0.6-4.1,1.7
			c-1.1,1.1-1.7,2.5-1.7,4.1c0,11.7,0,38,0,49.7c0,1.5,0.6,3,1.7,4.1c1.1,1.1,2.6,1.7,4.1,1.7c27.8,0,147.8,0,175.6,0
			c1.5,0,3-0.6,4.1-1.7c1.1-1.1,1.7-2.5,1.7-4.1C1778.1,1057.4,1778.1,1031,1778.1,1019.4L1778.1,1019.4z"/>
	</g>
	<g>
		<defs>
			<path id="SVGID_31_" d="M1778.1,1019.4c0-1.5-0.6-3-1.7-4.1c-1.1-1.1-2.6-1.7-4.1-1.7c-27.8,0-147.8,0-175.6,0
				c-1.5,0-3,0.6-4.1,1.7c-1.1,1.1-1.7,2.5-1.7,4.1c0,11.7,0,38,0,49.7c0,1.5,0.6,3,1.7,4.1c1.1,1.1,2.6,1.7,4.1,1.7
				c27.8,0,147.8,0,175.6,0c1.5,0,3-0.6,4.1-1.7c1.1-1.1,1.7-2.5,1.7-4.1C1778.1,1057.4,1778.1,1031,1778.1,1019.4L1778.1,1019.4z"
				/>
		</defs>
		<defs>
			<path id="SVGID_32_" d="M1854.1,113.3c0-9.9-4.2-19.5-11.6-26.5c-7.4-7-17.5-11-28-11c-220,0-1291.5,0-1511.6,0
				c-10.5,0-20.5,3.9-28,11c-7.4,7-11.6,16.5-11.6,26.5c0,159.8,0,783.5,0,943.3c0,9.9,4.2,19.5,11.6,26.5c7.4,7,17.5,11,28,11
				c220,0,1291.5,0,1511.6,0c10.5,0,20.5-3.9,28-11c7.4-7,11.6-16.5,11.6-26.5C1854.1,896.8,1854.1,273.1,1854.1,113.3L1854.1,113.3
				z"/>
		</defs>
		<clipPath id="SVGID_33_">
			<use xlink:href="#SVGID_31_"  style="overflow:visible;"/>
		</clipPath>
		<clipPath id="SVGID_34_" class="st27">
			<use xlink:href="#SVGID_32_"  style="overflow:visible;"/>
		</clipPath>
		<polygon class="st28" points="1751.1,1029.3 1601.7,1029.3 1601.7,1037.6 1751.1,1037.6 1751.1,1029.3 		"/>
		<polygon class="st28" points="1647.5,1050.8 1601.7,1050.8 1601.7,1059.1 1647.5,1059.1 1647.5,1050.8 		"/>
	</g>
	<g>
		<defs>
			<path id="SVGID_35_" d="M1854.1,113.3c0-9.9-4.2-19.5-11.6-26.5c-7.4-7-17.5-11-28-11c-220,0-1291.5,0-1511.6,0
				c-10.5,0-20.5,3.9-28,11c-7.4,7-11.6,16.5-11.6,26.5c0,159.8,0,783.5,0,943.3c0,9.9,4.2,19.5,11.6,26.5c7.4,7,17.5,11,28,11
				c220,0,1291.5,0,1511.6,0c10.5,0,20.5-3.9,28-11c7.4-7,11.6-16.5,11.6-26.5C1854.1,896.8,1854.1,273.1,1854.1,113.3L1854.1,113.3
				z"/>
		</defs>
		<clipPath id="SVGID_36_">
			<use xlink:href="#SVGID_35_"  style="overflow:visible;"/>
		</clipPath>
		<path class="st29" d="M954.3,510.3c0-3.2-2.6-5.8-5.8-5.8c-21.1,0-93.7,0-114.7,0c-3.2,0-5.8,2.6-5.8,5.8c0,11.7,0,38,0,49.7
			c0,3.2,2.6,5.8,5.8,5.8c21.1,0,93.7,0,114.7,0c3.2,0,5.8-2.6,5.8-5.8C954.3,548.3,954.3,522,954.3,510.3L954.3,510.3z"/>
	</g>
	<g>
		<defs>
			<path id="SVGID_37_" d="M954.3,510.3c0-3.2-2.6-5.8-5.8-5.8c-21.1,0-93.7,0-114.7,0c-3.2,0-5.8,2.6-5.8,5.8c0,11.7,0,38,0,49.7
				c0,3.2,2.6,5.8,5.8,5.8c21.1,0,93.7,0,114.7,0c3.2,0,5.8-2.6,5.8-5.8C954.3,548.3,954.3,522,954.3,510.3L954.3,510.3z"/>
		</defs>
		<defs>
			<path id="SVGID_38_" d="M1854.1,113.3c0-9.9-4.2-19.5-11.6-26.5c-7.4-7-17.5-11-28-11c-220,0-1291.5,0-1511.6,0
				c-10.5,0-20.5,3.9-28,11c-7.4,7-11.6,16.5-11.6,26.5c0,159.8,0,783.5,0,943.3c0,9.9,4.2,19.5,11.6,26.5c7.4,7,17.5,11,28,11
				c220,0,1291.5,0,1511.6,0c10.5,0,20.5-3.9,28-11c7.4-7,11.6-16.5,11.6-26.5C1854.1,896.8,1854.1,273.1,1854.1,113.3L1854.1,113.3
				z"/>
		</defs>
		<clipPath id="SVGID_39_">
			<use xlink:href="#SVGID_37_"  style="overflow:visible;"/>
		</clipPath>
		<clipPath id="SVGID_40_" class="st30">
			<use xlink:href="#SVGID_38_"  style="overflow:visible;"/>
		</clipPath>
		<polygon class="st31" points="936,520.2 835.2,520.2 835.2,528.5 936,528.5 936,520.2 		"/>
		<polygon class="st31" points="866.1,541.8 835.2,541.8 835.2,550 866.1,550 866.1,541.8 		"/>
	</g>
	<g>
		<defs>
			<path id="SVGID_41_" d="M1854.1,113.3c0-9.9-4.2-19.5-11.6-26.5c-7.4-7-17.5-11-28-11c-220,0-1291.5,0-1511.6,0
				c-10.5,0-20.5,3.9-28,11c-7.4,7-11.6,16.5-11.6,26.5c0,159.8,0,783.5,0,943.3c0,9.9,4.2,19.5,11.6,26.5c7.4,7,17.5,11,28,11
				c220,0,1291.5,0,1511.6,0c10.5,0,20.5-3.9,28-11c7.4-7,11.6-16.5,11.6-26.5C1854.1,896.8,1854.1,273.1,1854.1,113.3L1854.1,113.3
				z"/>
		</defs>
		<clipPath id="SVGID_42_">
			<use xlink:href="#SVGID_41_"  style="overflow:visible;"/>
		</clipPath>
		<path class="st32" d="M1072.1,894.3c0-3.2-2.6-5.8-5.8-5.8c-21.1,0-93.7,0-114.7,0c-3.2,0-5.8,2.6-5.8,5.8c0,11.7,0,38,0,49.7
			c0,3.2,2.6,5.8,5.8,5.8c21.1,0,93.7,0,114.7,0c3.2,0,5.8-2.6,5.8-5.8C1072.1,932.3,1072.1,906,1072.1,894.3L1072.1,894.3z"/>
	</g>
	<g>
		<defs>
			<path id="SVGID_43_" d="M1072.1,894.3c0-3.2-2.6-5.8-5.8-5.8c-21.1,0-93.7,0-114.7,0c-3.2,0-5.8,2.6-5.8,5.8c0,11.7,0,38,0,49.7
				c0,3.2,2.6,5.8,5.8,5.8c21.1,0,93.7,0,114.7,0c3.2,0,5.8-2.6,5.8-5.8C1072.1,932.3,1072.1,906,1072.1,894.3L1072.1,894.3z"/>
		</defs>
		<defs>
			<path id="SVGID_44_" d="M1854.1,113.3c0-9.9-4.2-19.5-11.6-26.5c-7.4-7-17.5-11-28-11c-220,0-1291.5,0-1511.6,0
				c-10.5,0-20.5,3.9-28,11c-7.4,7-11.6,16.5-11.6,26.5c0,159.8,0,783.5,0,943.3c0,9.9,4.2,19.5,11.6,26.5c7.4,7,17.5,11,28,11
				c220,0,1291.5,0,1511.6,0c10.5,0,20.5-3.9,28-11c7.4-7,11.6-16.5,11.6-26.5C1854.1,896.8,1854.1,273.1,1854.1,113.3L1854.1,113.3
				z"/>
		</defs>
		<clipPath id="SVGID_45_">
			<use xlink:href="#SVGID_43_"  style="overflow:visible;"/>
		</clipPath>
		<clipPath id="SVGID_46_" class="st33">
			<use xlink:href="#SVGID_44_"  style="overflow:visible;"/>
		</clipPath>
		<polygon class="st34" points="1053.9,904.3 953.1,904.3 953.1,912.5 1053.9,912.5 1053.9,904.3 		"/>
		<polygon class="st34" points="984,925.8 953.1,925.8 953.1,934 984,934 984,925.8 		"/>
	</g>
	<g>
		<defs>
			<path id="SVGID_47_" d="M1854.1,113.3c0-9.9-4.2-19.5-11.6-26.5c-7.4-7-17.5-11-28-11c-220,0-1291.5,0-1511.6,0
				c-10.5,0-20.5,3.9-28,11c-7.4,7-11.6,16.5-11.6,26.5c0,159.8,0,783.5,0,943.3c0,9.9,4.2,19.5,11.6,26.5c7.4,7,17.5,11,28,11
				c220,0,1291.5,0,1511.6,0c10.5,0,20.5-3.9,28-11c7.4-7,11.6-16.5,11.6-26.5C1854.1,896.8,1854.1,273.1,1854.1,113.3L1854.1,113.3
				z"/>
		</defs>
		<clipPath id="SVGID_48_">
			<use xlink:href="#SVGID_47_"  style="overflow:visible;"/>
		</clipPath>
		<path class="st35" d="M1217.7,636.6c0-1.5-0.6-3-1.7-4.1c-1.1-1.1-2.5-1.7-4.1-1.7c-24.8,0-122.5,0-147.3,0c-1.5,0-3,0.6-4.1,1.7
			c-1.1,1.1-1.7,2.5-1.7,4.1c0,11.7,0,38,0,49.7c0,1.5,0.6,3,1.7,4.1c1.1,1.1,2.5,1.7,4.1,1.7c24.8,0,122.5,0,147.3,0
			c1.5,0,3-0.6,4.1-1.7c1.1-1.1,1.7-2.5,1.7-4.1C1217.7,674.6,1217.7,648.3,1217.7,636.6L1217.7,636.6z"/>
	</g>
	<g>
		<defs>
			<path id="SVGID_49_" d="M1217.7,636.6c0-1.5-0.6-3-1.7-4.1c-1.1-1.1-2.5-1.7-4.1-1.7c-24.8,0-122.5,0-147.3,0
				c-1.5,0-3,0.6-4.1,1.7c-1.1,1.1-1.7,2.5-1.7,4.1c0,11.7,0,38,0,49.7c0,1.5,0.6,3,1.7,4.1c1.1,1.1,2.5,1.7,4.1,1.7
				c24.8,0,122.5,0,147.3,0c1.5,0,3-0.6,4.1-1.7c1.1-1.1,1.7-2.5,1.7-4.1C1217.7,674.6,1217.7,648.3,1217.7,636.6L1217.7,636.6z"/>
		</defs>
		<defs>
			<path id="SVGID_50_" d="M1854.1,113.3c0-9.9-4.2-19.5-11.6-26.5c-7.4-7-17.5-11-28-11c-220,0-1291.5,0-1511.6,0
				c-10.5,0-20.5,3.9-28,11c-7.4,7-11.6,16.5-11.6,26.5c0,159.8,0,783.5,0,943.3c0,9.9,4.2,19.5,11.6,26.5c7.4,7,17.5,11,28,11
				c220,0,1291.5,0,1511.6,0c10.5,0,20.5-3.9,28-11c7.4-7,11.6-16.5,11.6-26.5C1854.1,896.8,1854.1,273.1,1854.1,113.3L1854.1,113.3
				z"/>
		</defs>
		<clipPath id="SVGID_51_">
			<use xlink:href="#SVGID_49_"  style="overflow:visible;"/>
		</clipPath>
		<clipPath id="SVGID_52_" class="st36">
			<use xlink:href="#SVGID_50_"  style="overflow:visible;"/>
		</clipPath>
		<polygon class="st37" points="1194.7,646.6 1067.9,646.6 1067.9,654.8 1194.7,654.8 1194.7,646.6 		"/>
		<polygon class="st37" points="1106.8,668.1 1067.9,668.1 1067.9,676.3 1106.8,676.3 1106.8,668.1 		"/>
	</g>
	<g>
		<defs>
			<path id="SVGID_53_" d="M1854.1,113.3c0-9.9-4.2-19.5-11.6-26.5c-7.4-7-17.5-11-28-11c-220,0-1291.5,0-1511.6,0
				c-10.5,0-20.5,3.9-28,11c-7.4,7-11.6,16.5-11.6,26.5c0,159.8,0,783.5,0,943.3c0,9.9,4.2,19.5,11.6,26.5c7.4,7,17.5,11,28,11
				c220,0,1291.5,0,1511.6,0c10.5,0,20.5-3.9,28-11c7.4-7,11.6-16.5,11.6-26.5C1854.1,896.8,1854.1,273.1,1854.1,113.3L1854.1,113.3
				z"/>
		</defs>
		<clipPath id="SVGID_54_">
			<use xlink:href="#SVGID_53_"  style="overflow:visible;"/>
		</clipPath>
		<polygon class="st38" points="1252.4,703.9 1267.2,726.5 1252.4,749.1 1237.5,726.5 1252.4,703.9 		"/>
		<polygon class="st39" points="726.6,430.1 723.3,436.9 719.9,430.2 726.6,430.1 		"/>
		<path class="st40" d="M701.7,404.2h21.4c0,0,0.1,18,0.2,27.3"/>
		<polygon class="st39" points="1012.6,880.5 1009.2,887.3 1005.8,880.5 1012.6,880.5 		"/>
		<path class="st40" d="M750.3,854.1l258.9,0.5c0,0,0,18,0,27.3"/>
		<polygon class="st39" points="1687.9,1000.6 1684.6,1007.4 1681.2,1000.6 1687.9,1000.6 		"/>
		<path class="st40" d="M1072.1,919.2l612.4,0.5c0,0,0,63.2,0,82.3"/>
		<polygon class="st39" points="852.9,497.2 849.6,504 846.2,497.3 852.9,497.2 		"/>
		<path class="st40" d="M828,471.3h21.4c0,0,0.1,18,0.2,27.3"/>
		<polygon class="st39" points="1001.8,569.2 998.6,576 995.1,569.3 1001.8,569.2 		"/>
		<path class="st40" d="M954.3,543.4h43.8c0,0,0.3,18,0.4,27.3"/>
		<polygon class="st39" points="1226.2,731.4 1232.9,734.7 1226.2,738.1 1226.2,731.4 		"/>
		<path class="st40" d="M1217.7,662.7h16.9l0.3,36.5l-17,0.1l-0.1,35.4c0,0,5.4,0,9.8,0"/>
		<path class="st39" d="M750.3,831.8c0-3.2-2.6-5.8-5.8-5.8c-14.2,0-50.6,0-64.8,0c-3.2,0-5.8,2.6-5.8,5.8c0,11.7,0,38,0,49.7
			c0,3.2,2.6,5.8,5.8,5.8c14.2,0,50.6,0,64.8,0c3.2,0,5.8-2.6,5.8-5.8C750.3,869.8,750.3,843.5,750.3,831.8L750.3,831.8z"/>
	</g>
	<g>
		<defs>
			<path id="SVGID_55_" d="M750.3,831.8c0-3.2-2.6-5.8-5.8-5.8c-14.2,0-50.6,0-64.8,0c-3.2,0-5.8,2.6-5.8,5.8c0,11.7,0,38,0,49.7
				c0,3.2,2.6,5.8,5.8,5.8c14.2,0,50.6,0,64.8,0c3.2,0,5.8-2.6,5.8-5.8C750.3,869.8,750.3,843.5,750.3,831.8L750.3,831.8z"/>
		</defs>
		<defs>
			<path id="SVGID_56_" d="M1854.1,113.3c0-9.9-4.2-19.5-11.6-26.5c-7.4-7-17.5-11-28-11c-220,0-1291.5,0-1511.6,0
				c-10.5,0-20.5,3.9-28,11c-7.4,7-11.6,16.5-11.6,26.5c0,159.8,0,783.5,0,943.3c0,9.9,4.2,19.5,11.6,26.5c7.4,7,17.5,11,28,11
				c220,0,1291.5,0,1511.6,0c10.5,0,20.5-3.9,28-11c7.4-7,11.6-16.5,11.6-26.5C1854.1,896.8,1854.1,273.1,1854.1,113.3L1854.1,113.3
				z"/>
		</defs>
		<clipPath id="SVGID_57_">
			<use xlink:href="#SVGID_55_"  style="overflow:visible;"/>
		</clipPath>
		<clipPath id="SVGID_58_" class="st41">
			<use xlink:href="#SVGID_56_"  style="overflow:visible;"/>
		</clipPath>
		<polygon class="st42" points="739.3,841.8 678.3,841.8 678.3,850 739.3,850 739.3,841.8 		"/>
		<polygon class="st42" points="697,863.3 678.3,863.3 678.3,871.5 697,871.5 697,863.3 		"/>
	</g>
	<g>
		<defs>
			<path id="SVGID_59_" d="M1854.1,113.3c0-9.9-4.2-19.5-11.6-26.5c-7.4-7-17.5-11-28-11c-220,0-1291.5,0-1511.6,0
				c-10.5,0-20.5,3.9-28,11c-7.4,7-11.6,16.5-11.6,26.5c0,159.8,0,783.5,0,943.3c0,9.9,4.2,19.5,11.6,26.5c7.4,7,17.5,11,28,11
				c220,0,1291.5,0,1511.6,0c10.5,0,20.5-3.9,28-11c7.4-7,11.6-16.5,11.6-26.5C1854.1,896.8,1854.1,273.1,1854.1,113.3L1854.1,113.3
				z"/>
		</defs>
		<clipPath id="SVGID_60_">
			<use xlink:href="#SVGID_59_"  style="overflow:visible;"/>
		</clipPath>
		<path class="st43" d="M1297.4,590.7c0-3.2-2.6-5.8-5.8-5.8c-38.8,0-261.7,0-300.5,0c-3.2,0-5.8,2.6-5.8,5.8c0,4.8,0,11.6,0,16.4
			c0,3.2,2.6,5.8,5.8,5.8c38.8,0,261.7,0,300.5,0c3.2,0,5.8-2.6,5.8-5.8C1297.4,602.3,1297.4,595.5,1297.4,590.7L1297.4,590.7z"/>
		<path class="st43" d="M937.4,973.5c0-3.2-2.6-5.8-5.8-5.8c-38.8,0-261.7,0-300.5,0c-3.2,0-5.8,2.6-5.8,5.8c0,4.8,0,11.6,0,16.4
			c0,3.2,2.6,5.8,5.8,5.8c38.8,0,261.7,0,300.5,0c3.2,0,5.8-2.6,5.8-5.8C937.4,985.1,937.4,978.3,937.4,973.5L937.4,973.5z"/>
		<path class="st43" d="M1746.8,783.4c0-1.5-0.6-3-1.7-4.1c-1.1-1.1-2.6-1.7-4.1-1.7c-80.7,0-980.6,0-1061.3,0c-1.5,0-3,0.6-4.1,1.7
			c-1.1,1.1-1.7,2.5-1.7,4.1c0,4.8,0,11.6,0,16.4c0,1.5,0.6,3,1.7,4.1c1.1,1.1,2.6,1.7,4.1,1.7c80.7,0,980.6,0,1061.3,0
			c1.5,0,3-0.6,4.1-1.7c1.1-1.1,1.7-2.5,1.7-4.1C1746.8,795,1746.8,788.2,1746.8,783.4L1746.8,783.4z"/>
		<polygon class="st44" points="1944.6,75.9 173,75.9 173,184.3 1944.6,184.3 1944.6,75.9 		"/>
		<path class="st45" d="M297.7,121.4c5.1,0,9.2,3.9,9.2,8.7c0,4.8-4.1,8.7-9.2,8.7c-5.1,0-9.2-3.9-9.2-8.7
			C288.5,125.3,292.6,121.4,297.7,121.4L297.7,121.4z"/>
		<path class="st45" d="M321,121.4c5.1,0,9.2,3.9,9.2,8.7c0,4.8-4.1,8.7-9.2,8.7c-5.1,0-9.2-3.9-9.2-8.7
			C311.8,125.3,315.9,121.4,321,121.4L321,121.4z"/>
		<path class="st45" d="M344.3,121.4c5.1,0,9.2,3.9,9.2,8.7c0,4.8-4.1,8.7-9.2,8.7c-5.1,0-9.2-3.9-9.2-8.7
			C335.1,125.3,339.3,121.4,344.3,121.4L344.3,121.4z"/>
		<polygon class="st46" points="406.5,117.8 393.6,130 406.5,142.3 408.9,140 398.5,130 408.9,120.2 406.5,117.8 		"/>
		<polygon class="st46" points="1615.8,141.2 1615.8,112.6 1612.3,112.6 1612.3,141.4 1603.6,133 1601.2,135.4 1614,147.6 
			1627,135.4 1624.5,133 1615.8,141.2 		"/>
		<polygon class="st46" points="1671.7,145 1684.6,132.9 1682.7,131.1 1669.8,143.3 1669.8,134.4 1667.2,134.4 1667.1,147.5 
			1681,147.6 1681,145.1 1671.7,145 		"/>
		<polygon class="st46" points="1699.5,115.1 1688.6,125.4 1690.5,127.2 1701.4,116.8 1701.4,125.7 1704,125.7 1704.1,112.6 
			1690.2,112.6 1690.2,115.1 1699.5,115.1 		"/>
		<polygon class="st47" points="1791.1,113.6 1746.8,113.6 1746.8,116.1 1791.1,116.1 1791.1,113.6 		"/>
		<polygon class="st47" points="1791.1,129.9 1746.8,129.9 1746.8,132.3 1791.1,132.3 1791.1,129.9 		"/>
		<polygon class="st47" points="1791.1,146.2 1746.8,146.2 1746.8,148.6 1791.1,148.6 1791.1,146.2 		"/>
		<polygon class="st46" points="442.6,117.8 455.5,130 442.6,142.3 440.2,140 450.6,130 440.2,120.2 442.6,117.8 		"/>
		<path class="st46" d="M508.4,132.2c0,0.2,0,0.4,0,0.7c0,0.4-0.1,0.9-0.2,1.3c-0.3,1.4-0.9,2.7-1.8,3.9c-0.9,1.2-2.1,2.3-3.5,3
			c-1.3,0.7-2.8,1.1-4.3,1.3c-1.4,0.1-2.8,0-4.2-0.4c-1.3-0.4-2.5-1-3.6-1.8c-1-0.8-1.9-1.7-2.5-2.8c-0.6-0.9-1-2-1.3-3
			c-0.2-1-0.3-2-0.2-3c0.1-1,0.3-2,0.7-3c0.4-1.1,1.1-2.1,1.9-2.9c0.8-0.9,1.8-1.7,2.9-2.2c1.1-0.6,2.3-1,3.5-1.2
			c0.4-0.1,0.8-0.1,1.2-0.1c0.2,0,0.4,0,0.5,0l0,2.3c-0.1,0-0.1,0-0.2,0c-0.1,0-0.1,0-0.2,0c-0.5,0-0.9,0.1-1.4,0.2
			c-0.9,0.2-1.8,0.5-2.6,1c-0.8,0.5-1.6,1.1-2.2,1.8c-0.6,0.7-1,1.5-1.4,2.4c-0.3,0.8-0.4,1.5-0.4,2.3c0,0.7,0.1,1.5,0.3,2.2
			c0.2,0.8,0.6,1.5,1,2.2c0.5,0.8,1.2,1.5,2,2.1c0.8,0.6,1.7,1,2.7,1.3c1.1,0.3,2.2,0.4,3.3,0.3c1.2-0.1,2.3-0.5,3.3-1
			c1.1-0.6,2-1.4,2.7-2.4c0.7-0.9,1.1-1.9,1.3-3c0.1-0.3,0.1-0.7,0.1-1c0-0.2,0-0.3,0-0.5v-0.6h2.4
			C508.4,131.7,508.4,132,508.4,132.2L508.4,132.2z"/>
		<polygon class="st48" points="497.6,128.6 497.6,117.8 507.2,122.1 497.6,128.6 		"/>
	</g>
	<path class="st49" d="M408.3,621c0,0-19,58.7,0.6,106c19.6,47.3,74.5,162.5,74.5,162.5s-8.9,49.5,8.6,98.9
		c17.5,49.4,29,103.8,29,103.8c6.6,3.4,13.3,3.5,19.9,0.6l-12.5-460.1L408.3,621L408.3,621z"/>
	<path class="st50" d="M408.9,625l119.1,7.9c0,0-36.4,192-67.6,267.2c0,0-29.4,19.1-43.5-16.3C412.5,873.1,382.1,670.7,408.9,625
		L408.9,625z"/>
	<path class="st51" d="M572.6,642.5c0,0,29.7,14,34.1,24.3c0,0,3,7.9-2,7.4c0,0-1,5.9-4.8,5.2c0,0-2.9,5-7.2,3.5
		c-4.3-1.5-3.6,5.2-8.2,1.6c0,0-21.7-32.3-20.8-38.9L572.6,642.5L572.6,642.5z"/>
	<path class="st52" d="M527.3,520.2c0,0,33.7,98.8,47.3,122.1c0.8,7.8-5.3,11.3-11.6,10.4c0,0-64.5-83.1-69.4-112.4
		C493.6,540.3,512.4,523.4,527.3,520.2L527.3,520.2z"/>
	<path class="st52" d="M496.4,554.8c-15.1-12.5-34.6-108.2-20.8-144.8c5.3-14,13.6-17.3,23.1-16.4c13.1,1.3,27.4,13.9,29,47
		c2.8,57.1-0.9,65.7,2.2,91.2C527.2,543.3,509.9,555,496.4,554.8L496.4,554.8z"/>
	<path class="st53" d="M461.2,583.9c0,0-39.5-159.7-17.6-191.2c21.9-31.5,70.5-0.5,69.5,61.1c-1,61.6-9.5,80.2-8,107.8
		C501.5,573.8,481.9,597.3,461.2,583.9L461.2,583.9z"/>
	<g>
		<defs>
			<path id="SVGID_61_" d="M461.2,583.9c0,0-39.5-159.7-17.6-191.2c21.9-31.5,70.5-0.5,69.5,61.1c-1,61.6-9.5,80.2-8,107.8
				C501.5,573.8,481.9,597.3,461.2,583.9L461.2,583.9z"/>
		</defs>
		<clipPath id="SVGID_62_">
			<use xlink:href="#SVGID_61_"  style="overflow:visible;"/>
		</clipPath>
		<path class="st54" d="M516.1,429.4c1.3,0.2-0.7,2.5-1,3.8c-0.4,2.4-0.7,4.7-1.1,7.1c-1.1,7.5-1.9,15-2.7,22.6
			c-2.4,23.6-5.6,46.8-11.8,69.7c-2.9,10.6-5.4,21.7-10.6,31.4c-4.6,8.6-12.1,15.8-21,19.8c-3.5,1.6-7.2,2.7-11,3.6
			c-0.3,0.1-4.9,1.1-4.8,1.4c1.2,1.8,11.2,0.3,12.8,0.2c13.3-0.7,27.5-2.8,38.5-10.9c23.6-17.4,26.5-53.1,25.7-79.9
			c-0.3-10.5,0.4-23.4-7.8-30.8"/>
	</g>
	<path class="st55" d="M413.7,390.9c0,0,36.8-43.3,74.6-23.5c37.7,19.8,42.5,57.1,43.7,102.2c3.2,118-8.7,135.3-2.9,169.4
		c6.9,40.7-90.3,21.1-108.3,4.8c-18.1-16.3-5.5-52.5-12.9-102.3C394.5,451.3,393.9,424.1,413.7,390.9L413.7,390.9z"/>
	<path class="st56" d="M483.2,372.3c2.8,1.9,5.6,4,5.1,9.4l-7.4-0.2L483.2,372.3L483.2,372.3z"/>
	<path class="st56" d="M496.1,546.2c1.5-8-5.6-115.6-12.1-155.6c-0.6-3.7-2.6-6.6-3.1-9.1l7.4,0.2c0.5,1.3-0.5,3.8,0.3,7.5
		c6.8,31.6,25.8,140.2,25.1,155.2c0,0-5.3,18.2-7,27.8C506.8,572.2,502.5,556.6,496.1,546.2L496.1,546.2z"/>
	<path class="st57" d="M464,365.6c-0.2,0.1,0.4,0.3,0.6,0.5c0.4,0.3,0.8,0.6,1.3,0.9c1.4,0.9,2.8,1.8,4.3,2.6c3,1.6,6.2,2.7,9.5,3.3
		c1.3,0.3,3.8-0.1,4.9,0.6c0.3,0.2-1.1,1.7-1.2,1.9c-0.8,1.1-0.9,2.7-1,4.1c-0.3,3.6,0,7.9-0.3,7.8c-1.2-0.4-5-0.7-6.2-1.3
		c-5-2.7-9.6-6.8-12-12.4c-0.8-1.9-2.2-6.8,0.5-8"/>
	<path class="st57" d="M483.3,373.6c-0.1-0.3,1.3,0.4,1.4,0.5c0.9,0.8,1.7,1.8,2.3,2.9c1,1.8,1.4,3.9,1.6,5.9c0,0.2,0.2,3.2,0.4,3.1
		c0.5-0.2,0.8-1.2,0.9-1.7c0.6-1.8,0.8-3.7,0.7-5.6c-0.1-2-0.6-4-1.3-5.9c-0.7-1.8-1.4-3.6-2.3-5.3c-0.4-0.7-0.7-1.4-1.2-2
		c-0.1-0.2-0.6-0.5-0.6-0.3c-0.1,1.9,0.6,3.5-0.6,5.3c-0.5,0.8-1.1,1.7-1.8,2.4c-0.1,0.1-0.7,0.5-0.6,0.7"/>
	<path class="st58" d="M511.7,277.4c1,1.4,1.6,3,2,4.7c0.9,4.8,4.4,11.1,2,15.4c-0.5,0.9-1.2,2.1-1.5,2.1l-0.1,0l-43.1,47.7
		c0,0-1.8-0.7-1.9-0.7c-1.7-1.1-0.8-0.8-2.5-1.7c-4.6-2.2-13.8-12.4-18.7-31.2c-4.6-17.5,2.7-31.3,6-36.1c3.2-4.6,16.8-9,26-11.2
		C516.6,257.8,514.2,273.6,511.7,277.4L511.7,277.4z"/>
	<path class="st59" d="M486.1,351.9l-0.3,18.1c0,0,1.1,3.1-3.1,4c-5,1.1-16.7-2.5-18.2-7.1l1.6-35.1L486.1,351.9L486.1,351.9z"/>
	<g>
		<defs>
			<path id="SVGID_63_" d="M486.1,351.9l-0.3,18.1c0,0,1.1,3.1-3.1,4c-5,1.1-16.7-2.5-18.2-7.1l1.6-35.1L486.1,351.9L486.1,351.9z"
				/>
		</defs>
		<clipPath id="SVGID_64_">
			<use xlink:href="#SVGID_63_"  style="overflow:visible;"/>
		</clipPath>
		<path class="st60" d="M463.8,342.4c0.3-0.4-0.1,0.9,0,1.3c0.2,0.9,0.5,1.8,0.8,2.7c0.9,2.6,2,5.1,3.3,7.6
			c3.7,7.1,9.3,14.4,16.3,19c1.6,1.1,6.8,4.4,9,2.5c1.4-1.2,0.5-4.2,0.3-5.6c-1.1-6.2-2.7-12.3-4.3-18.4c-2.2-8.2-4.7-16.4-7.5-24.5
			c-0.9-2.6-2.1-7.3-5.6-8c-4.7-0.9-11.8,3.4-16.4,4.6"/>
	</g>
	<path class="st59" d="M509.3,284.3c0,0,17.3,71.3-4.1,75.5c-22.8,4.5-41.4-22.1-41.4-22.1L464,319c4.5-8.5,4.7-17.4,0.4-26.8
		l0.2-11.3L509.3,284.3L509.3,284.3z"/>
	<path class="st58" d="M488.3,348.9c-3-1.2-5.9-2.8-8.7-4.8c-4.9-3.4-5.5-9.6-10.4-12.4c-0.9-0.5-1.5-18.5-1.8-26.8
		c-2.5-0.3-2.4,10.4-3.9,11.5l-0.4,14.6c0,2.3-3.3,2.1-1.6,7.1c1.3,3.8,6.2,9.7,9.4,12.9c7.2,7.2,6.9,8.5,17.6,11.6
		c5.6,1.6,18.4,0,22.7-4.8c3.6-4,5-9.2,4.9-13.7c0-1.1,0.7-2.3,0.1-5c-1.2,2.4-1.1,4.6-3.6,8.3c-0.6-2.2-2.3-4.7-3.3-6.8
		c-1-2-4.2-1.7-6.2-2.2c-2.9-0.7-7.3-1.5-10.1,0.1C492.2,339.1,490,344.4,488.3,348.9L488.3,348.9z M489.4,349.3
		c1.1-2.2,2.2-5.7,3.7-7.3c1.8-2,4-1.3,5.5-1.2c2.3,0.2,7.9-0.2,9.7,1.2c1.7,1.3,3,4,3.4,6.2c-0.7,0.5-2.6,1.5-3.5,1.8
		c-0.6,0.2-1.2,0.3-1.8,0.5c-0.8-0.9-1.7-1.9-2.7-1.9c-0.7,0-1.3,0.5-1.9,0.8c-1.1,0.6-2.2,1.3-3.3,1.8
		C495.4,351,492.4,350.4,489.4,349.3L489.4,349.3z"/>
	<path class="st59" d="M461.4,314.1c-1.4-2.5-10-5.1-5.8,5.2c3.7,9.1,9,9.4,9,9.4c1.1-1.8,1.2-4.5-0.2-8.3
		C463.7,318.5,462.8,316.5,461.4,314.1L461.4,314.1z"/>
	<path class="st58" d="M494,281.1l0.6-2.1c-10.5-1.6-26.8-9.3-36.2-3.4c-3.1,2-2.3,14.2-2.9,18.3c-0.2,1.5,0,4.2,1.7,4.7
		c2.6,0.7,4.6-3.5,6.1-5c2.7-2.7,8-4.5,11.5-5.1c12.7-2,19.6,2.4,20.5,1.5c1.5-1.5,6.1-0.3,7.8-1.2c3.6-2.1,10.4,0.5,13.6,4.9
		l-2.2-9.6l-7.3-4.3C505.9,279.7,495.2,281,494,281.1L494,281.1z"/>
	<path class="st51" d="M592.1,512.3c0,0,26-20.1,37.2-19.2c0,0,8.4,1,5.7,5.2c0,0,4.8,3.6,2.4,6.6c0,0,3.1,4.8-0.1,8
		c-3.3,3.2,3,5.6-2.4,8c0,0-38.7,4.6-44.1,0.8L592.1,512.3L592.1,512.3z"/>
	<path class="st52" d="M437.6,507.6c0,0,128.4,4.3,155.3,2.8c7.4,2.9,7.7,9.9,3.9,15c0,0-128.4,30.4-156.7,21.4
		C440.1,546.8,433.7,522.4,437.6,507.6L437.6,507.6z"/>
	<path class="st61" d="M552,506.4c0,0-57.6,1-66.2,1.1c-0.6,0-1,0.5-1,1.1c0,1,0,2.5,0,2.5l67.2-1.2L552,506.4L552,506.4z"/>
	<path class="st61" d="M661.6,437.4c0.3-1.4,0-2.8-0.9-3.9c-0.9-1.1-2.2-1.7-3.7-1.7c-19.3,0.3-80.2,1.4-95.9,1.6
		c-2.2,0-4,1.6-4.5,3.7c-2.7,12.6-11.5,54.8-14.6,69.5c-0.3,1.2,0.1,2.5,0.9,3.5c0.8,1,2,1.5,3.3,1.5c18.2-0.2,78.8-1,95.1-1.2
		c2.4,0,4.4-1.7,4.9-4C649.2,493.5,658.3,452.6,661.6,437.4L661.6,437.4z"/>
	<path class="st62" d="M550.9,510l-67.2,1.2v0c0,0.9,0.7,1.6,1.6,1.6c10.2-0.2,65.6-1.1,65.6-1.1L550.9,510L550.9,510z"/>
	<path class="st63" d="M664.1,437.7c0.3-1.4,0-2.8-0.9-3.9c-0.9-1.1-2.2-1.7-3.7-1.7c-19.1,0.3-79.2,1.4-94.7,1.6
		c-2.2,0-4,1.6-4.5,3.7c-2.6,12.6-11.4,54.5-14.4,69.1c-0.3,1.2,0.1,2.5,0.9,3.5s2,1.5,3.3,1.5c18.1-0.2,77.8-1,94-1.2
		c2.4,0,4.4-1.7,5-4C651.8,493.5,660.7,452.8,664.1,437.7L664.1,437.7z"/>
	<polygon class="st64" points="605.2,460.3 613.5,471.7 605.6,483.5 597.2,472 605.2,460.3 	"/>
	<path class="st52" d="M440.3,546.8c-16.1-11.1-43.7-104.8-33-142.5c4.1-14.4,12.1-18.4,21.6-18.3c13.2,0.1,28.4,11.5,32.9,44.4
		c7.6,56.7,4.6,65.5,9.9,90.7C469.9,532.8,453.7,545.9,440.3,546.8L440.3,546.8z"/>
	<path class="st50" d="M461.8,891.2L444.5,1092c-7.7,9.8-13.8,10.6-21.3-2.4c0,0-14-87.5-14.1-148.9c-0.1-28.4,2.8-51.2,11.4-57.2
		L461.8,891.2L461.8,891.2z"/>
	<path class="st65" d="M520.6,1088.4c0,0-4.4,24.4-0.2,38.5l72,0.1c0,0-8.7-9.2-30.5-14.6c-21.8-5.4-21.1-22-21.1-22
		C535.1,1094.9,525.8,1093.6,520.6,1088.4L520.6,1088.4z"/>
	<path class="st65" d="M423.3,1088.7c0,0-3.9,24,0.8,38.3l75-0.5c0,0-9.3-9.2-32.2-14.2c-22.8-5-22.5-22-22.5-22
		C438.6,1095,428.9,1093.9,423.3,1088.7L423.3,1088.7z"/>
	<path class="st51" d="M638.1,511.7c0,0-49.4,2.6-43.6-1.2c8.6-5.7,28.8-11.1,35.5-10.6c0,0,8.4,1,5.7,5.2
		C635.7,505.1,640.5,508.6,638.1,511.7L638.1,511.7z"/>
	<path class="st66" d="M279.7,625.4c0,0-18.8,58.1,0.5,105c19.4,46.8,73.8,160.9,73.8,160.9s-8.8,49,8.5,97.9
		c17.4,48.9,28.7,102.8,28.7,102.8c6.6,3.3,13.1,3.4,19.7,0.6l-15.2-455.3L279.7,625.4L279.7,625.4z"/>
	<path class="st67" d="M280.3,629.3l115.3,12.2c0,0-33.4,185.6-64.4,260.2c0,0-29.1,18.9-43.1-16.2
		C283.9,875,253.8,674.6,280.3,629.3L280.3,629.3z"/>
	<path class="st67" d="M332.6,892.9l-17.1,198.8c-7.6,9.7-13.6,10.5-21.1-2.4c0,0-13.8-86.6-14-147.4c-0.1-28.1,2.8-50.7,11.3-56.6
		L332.6,892.9L332.6,892.9z"/>
	<path class="st68" d="M390.8,1088.1c0,0-4.4,23.2-0.2,37.2l71.3,1.1c0,0-8.7-9.1-30.2-14.4c-21.6-5.3-20.9-21.8-20.9-21.8
		C405.2,1094.5,396,1093.3,390.8,1088.1L390.8,1088.1z"/>
	<path class="st68" d="M294.5,1088.5c0,0-4,23.6,0.6,37.8l74.4-0.4c0,0-9.3-9.1-31.9-14c-22.6-4.9-22.3-21.8-22.3-21.8
		C309.7,1094.7,300,1093.6,294.5,1088.5L294.5,1088.5z"/>
	<path class="st69" d="M328.4,530.5c0,0-9.9-122.7,10.1-143.3c20-20.6,52.2,8.1,44,53.5c-8.2,45.4-16.7,58.1-18.9,78.7
		C359.4,527.9,342.1,542.8,328.4,530.5L328.4,530.5z"/>
	<path class="st69" d="M458.6,575.2l-0.2,0.3c0,0-125.1-29.8-144.7-51.8c0,0-27-38.1,18.3-44.7c0,0,104.8,81.7,133.7,84.9l-0.2,0.3
		c1.9,0.1-5.2,12.5-6.1,11.9C459.1,575.8,458.9,575.5,458.6,575.2C458.6,575.2,458.6,575.2,458.6,575.2L458.6,575.2z"/>
	<path class="st70" d="M453.9,578.6c0,0,12,6.4,20.3,4.6c0,0,6.2-1.6,3.6-5c0,0,3.1-3.5,1-5.9c0,0,4.1-2.3,1.3-4.7
		c-2.9-2.4,0.9-3.5-3.5-5.1c0,0-18.1-5.2-21.7-1.4C452.6,563.9,452.5,574.3,453.9,578.6L453.9,578.6z"/>
	<path class="st71" d="M418.8,488.2c0.3-0.7,0.9-1.3,1.6-1.7c0.7-0.3,1.6-0.3,2.3,0c12,4.8,58.6,23.6,70.6,28.4
		c0.7,0.3,1.3,0.9,1.7,1.6c0.3,0.7,0.3,1.6,0,2.3c-6.2,15.5-36.5,90.8-42.8,106.4c-0.3,0.7-0.9,1.3-1.6,1.6c-0.7,0.3-1.6,0.3-2.3,0
		c-12-4.8-58.6-23.6-70.6-28.4c-0.7-0.3-1.3-0.9-1.7-1.6c-0.3-0.7-0.3-1.6,0-2.3C382.3,579.1,412.6,503.7,418.8,488.2L418.8,488.2z"
		/>
	<path class="st9" d="M421,492.6c0.3-0.7,0.9-1.3,1.6-1.7c0.7-0.3,1.6-0.3,2.3,0c11.2,4.5,52.6,21.2,63.8,25.7
		c0.7,0.3,1.3,0.9,1.7,1.6c0.3,0.7,0.3,1.6,0,2.3c-6,15-34.3,85.4-40.3,100.3c-0.3,0.7-0.9,1.3-1.6,1.6c-0.7,0.3-1.6,0.3-2.3,0
		c-11.2-4.5-52.6-21.2-63.8-25.7c-0.7-0.3-1.3-0.9-1.7-1.6c-0.3-0.7-0.3-1.6,0-2.3C386.7,578,415,507.6,421,492.6L421,492.6z"/>
	<path class="st70" d="M477.7,562.2c-0.2-0.2-0.4,0.3-0.6,0.4c-0.4,0.2-0.8,0.4-1.3,0.6c-2.2,0.8-4.4,0.8-5.4,3.3
		c-0.5,1.2-0.7,2.5-1.2,3.7c-0.7,1.9-1.7,3.7-2.3,5.7c-0.3,1.1-1,3.1-0.6,4.2c0.3,0.8,2,2.1,2.7,2.2c1.5,0.3,3.3,0,4.7-1.1
		c1.2-1,1.3-3.7,1.6-5.1C475.9,573.7,477.4,564.5,477.7,562.2L477.7,562.2z"/>
	<path class="st72" d="M277.6,392.9c0,0,34.5-41.3,70.5-22.9c35.9,18.4,40.8,53.8,42.3,96.5c4.1,111.8,0.5,111.6,7.8,177.3
		c-20.3,33.4-94,17.4-117.7,17.1c-23.1-0.3,0.4-78.1-7-125.2C260,450.3,259.2,424.5,277.6,392.9L277.6,392.9z"/>
	<path class="st73" d="M317.7,373.7c0,0,17.2-1,20.9-3.5l9.6,79.4l-13.9,2.5L317.7,373.7L317.7,373.7z"/>
	<path class="st57" d="M317.8,366.5c-0.2,0,0.2,0.4,0.3,0.6c0.2,0.4,0.4,0.8,0.7,1.1c0.7,1.2,1.5,2.3,2.4,3.3c1.7,2,3.5,3.5,5.6,4.4
		c0.8,0.4,2.4,0.2,3.1,1c0.1,0.2-1,1.9-1.1,2.1c-0.7,1.3-1,3-1.4,4.6c-0.8,4.1-1.3,9-1.5,8.9c-0.7-0.6-3.1-1.2-3.8-2
		c-2.8-3.5-5-8.4-5.7-15c-0.2-2.3-0.3-7.9,1.7-9.1"/>
	<path class="st57" d="M330.4,376.8c0-0.3,3.5,0.9,3.7,1c1.3,1.1,2.3,2.3,3,3.6c1.2,2.1,1.7,4.3,1.7,6.5c0,0.3-0.2,3.4,0.2,3.4
		c0.8-0.2,1.3-1.1,1.6-1.6c1.2-1.7,1.7-3.7,1.7-5.7c0.1-2.1-0.4-4.4-1.2-6.5c-0.8-2-1.6-4.1-2.9-6c-0.5-0.8-0.9-1.6-1.6-2.3
		c-0.2-0.2-0.8-0.6-0.8-0.4c-0.3,2,0.5,3.8-1.5,5.5c-0.9,0.7-1.9,1.6-3,2.1C331.2,376.4,330.2,376.6,330.4,376.8"/>
	<path class="st74" d="M352,509.9l15.3-63.6l-8.8-10.4l3.7-14.9c0,0-4.2-56.5-25.4-54.5L352,509.9L352,509.9z"/>
	<polygon class="st75" points="327.1,383.2 328,377.3 332.1,376.6 335.3,379.3 334,386 352.4,465.5 353.7,502.9 352,510.3 
		348.4,504.5 337.5,467.1 328.9,386.8 327.1,383.2 	"/>
	<path class="st76" d="M316.9,336.8c0,0-0.1,0-0.1,0c-0.7-0.3-1.5-1.1-2.1-1.6c-1.2-1.2-2.3-2.5-3.2-4c-2.6-4.5-3.9-9.8-5.3-14.7
		c-4.2-15.1-6.4-29.7,2.6-43.1c3.8-5.7,12.4-9.9,18.9-10.6c13.7-1.5,25.4,0.6,31.7,13.2c1.5,3,2.9,11.6,3.6,16.3"/>
	<path class="st77" d="M362.4,292.7c0.5-0.2,0.4-0.9,0.5-1.4c0.1-1.4,0-2.7-0.3-4.1c-0.9-5.5-1.8-13.3-5.7-17.7
		c-6.9-7.9-20.8-7.6-24.1-7.8c-9.4-0.6-21.3,4.4-26.8,12.2c-1.7,2.3-2.7,5-3.8,7.6c-5.7,14.8-2.3,30.7,3.5,44.9
		c1.7,4.2,4.1,7.6,6.2,11.5c1,1.8,1.5,4.1,3.1,5.4c2.8,2.5,6.3-0.2,7.9-2.7c2.8-4.4,2.5-11.1,2.5-16.1
		C325.4,315.6,354,296.7,362.4,292.7L362.4,292.7z"/>
	<path class="st74" d="M352,509.9l-36.8-55.5l5-12.9l-8.2-12.7c0,0-14-54.7,6.6-60.4L352,509.9L352,509.9z"/>
	<path class="st70" d="M337.1,345.2l-0.2,24.9c0,0-3.4,6.2-6.8,6.9c-3.8,0.7-4.9,0.2-12.4-5.6l-0.9-45.7L337.1,345.2L337.1,345.2z"
		/>
	<g>
		<defs>
			<path id="SVGID_65_" d="M337.1,345.2l-0.2,24.9c0,0-3.4,6.2-6.8,6.9c-3.8,0.7-4.9,0.2-12.4-5.6l-0.9-45.7L337.1,345.2
				L337.1,345.2z"/>
		</defs>
		<clipPath id="SVGID_66_">
			<use xlink:href="#SVGID_65_"  style="overflow:visible;"/>
		</clipPath>
		<path class="st78" d="M316.6,336.3c0.2-0.4,0.1,0.8,0.2,1.2c0.3,0.8,0.7,1.6,1.1,2.4c1.2,2.3,2.5,4.6,4,6.7
			c4.3,6.2,10.3,12.4,17.1,15.9c1.6,0.8,6.6,3.3,8.2,1.3c1-1.3-0.2-4-0.6-5.3c-1.9-5.7-4.2-11.2-6.6-16.7c-3.2-7.4-6.6-14.8-10.3-22
			c-1.2-2.3-3-6.6-6.1-6.8c-4.2-0.3-9.7,4.5-13.6,6.1"/>
	</g>
	<path class="st70" d="M359.4,275.9c0,0,19.8,72.4-6.3,78.8c-26.1,6.4-40.1-26.8-40.1-26.8l2-56.2
		C329.8,272.5,344.9,271.9,359.4,275.9L359.4,275.9z"/>
	<polygon class="st79" points="312.2,308.6 334.7,306 334.7,308.9 313.3,310 312.2,308.6 	"/>
	<path class="st79" d="M342.5,299.1c-5.1,0.3-8.9,5.2-8.6,10.9c0.3,5.7,4.7,10.1,9.8,9.8c5.1-0.3,9-5.2,8.6-10.9
		C352,303.2,347.6,298.8,342.5,299.1L342.5,299.1z M342.6,300.2c-4.6,0.3-8.1,4.7-7.8,9.8c0.3,5.2,4.3,9.1,8.9,8.9
		c4.6-0.3,8.1-4.7,7.8-9.8C351.1,303.9,347.2,299.9,342.6,300.2L342.6,300.2z"/>
	<path class="st79" d="M362.3,298c-4.8,0.3-8.5,4.9-8.2,10.4c0.3,5.4,4.5,9.6,9.3,9.3c4.8-0.3,8.5-4.9,8.2-10.4
		C371.4,301.9,367.2,297.7,362.3,298L362.3,298z M362.4,299c-4.4,0.3-7.7,4.4-7.4,9.3c0.3,4.9,4.1,8.7,8.4,8.4
		c4.4-0.3,7.7-4.4,7.4-9.3C370.5,302.5,366.7,298.7,362.4,299L362.4,299z"/>
	<path class="st79" d="M350.5,303.9c0.6-0.6,1.2-1,2-1.2c0.9-0.2,2.3-0.3,3,0.4c0.3,0.3,0,0.5-0.2,0.8c-0.1,0.1-0.2,0.3-0.2,0.3
		s-0.2-0.1-0.3-0.2c-0.2-0.1-0.4-0.2-0.6-0.2c-0.6-0.2-1.3-0.1-1.9,0.1c-0.4,0.1-0.9,0.3-1.2,0.6c-0.1,0.1-0.2,0.2-0.3,0.3
		c0,0.1-0.1,0.3,0,0.2"/>
	<path class="st70" d="M313.9,310.9c-0.2,0-1.1-1.6-1.1-1.8c-0.9-1.4-4.5-6-6.7-3.4c-0.8,1-0.7,2.5-0.6,3.6c0.3,3.1,1.3,6,2.9,8.6
		c0.5,0.8,2,3.3,3.4,3c1-0.3,1.5-1.5,2-2.3"/>
	<path class="st77" d="M359.5,276.5c-0.1,0-1.6-0.8-1.8-0.8c-1.6-0.5-3.5-0.7-5.2-0.6c-3.5,0.2-6.5,2.8-9.8,2.9
		c-2.1,0.1-4.3-0.9-6.3-1.2c-3.5-0.6-7.3-0.7-10.8,0c-3.8,0.8-7.7,2.2-10.1,5.4c-1,1.4-1.6,3-2.1,4.6c-0.1,0.3-0.4,1.5-0.9,1.3
		c-1.3-0.6-1.6-3.6-1.8-4.7c-0.8-4.8,0.8-10.6,5-13.5c4.4-3,38.9,0.4,43.9,5.5C360,275.7,360.1,276.7,359.5,276.5"/>
	<path class="st70" d="M533.1,505.4c0,0,20.9-10.3,30-7.2c0,0,56.2,5.5,3.7,5.4c0,0,3.2,3.9,0.7,5.8c0,0,1.6,4.5-1.7,6.4
		c-3.3,1.8,1.4,5.1-3.6,5.9c0,0-32.9-4.6-36.7-8.8L533.1,505.4L533.1,505.4z"/>
	<path class="st69" d="M390,455.6c0,0,100,41.5,139.2,43.9c3.3,0.2,7.5,2.4,9.8,2c1.7,5.5-1,11.8-7.1,16.6c0,0-91.7-5.9-140-15.9
		C381.2,500,360.6,476.8,390,455.6L390,455.6z"/>
	<path class="st69" d="M390.2,501.5c0,0-127.1-55.7-120.5-79.4c3.3-11.9,18.9-57.1,76.7-9.3c24.2,20,41.1,39.5,49.4,45
		C399.8,468.3,413.2,502,390.2,501.5L390.2,501.5z"/>
	<path class="st51" d="M1311.9,593.3c0,0-22-9.7-31.2-6.2c0,0-6.9,2.9-3.6,5.7c0,0-3.2,4.1-0.5,6c0,0-1.5,4.7,2,6.5
		c3.5,1.8-1.2,5.3,3.9,6c0,0,33.8-6.1,37.5-10.6L1311.9,593.3L1311.9,593.3z"/>
	<path class="st80" d="M1523.5,638.5c0,0,18.3,56.7-0.5,102.4c-18.9,45.6-71.9,156.9-71.9,156.9s-1.2,35.8-14.8,92.5
		c-11.8,49.2-21.5,103.2-21.5,103.2c-6.4,3.3-12.8,3.3-19.2,0.6l12.1-444.2L1523.5,638.5L1523.5,638.5z"/>
	<path class="st81" d="M1522.9,642.4l-115,7.6c0,0,35.1,185.3,65.3,258c0,0,40.6,25,45-11.6C1521.6,868.8,1535.5,682.1,1522.9,642.4
		L1522.9,642.4z"/>
	<path class="st81" d="M1471.8,899.3l16.7,193.9c7.4,9.4,13.3,10.2,20.6-2.3c0,0,10.4-83.4,10.6-142.7c0.1-27.4-2.6-62-7.9-78.6
		L1471.8,899.3L1471.8,899.3z"/>
	<path class="st67" d="M1415.1,1089.7c0,0,4.3,23.5,0.2,37.2l-69.5,0.1c0,0,8.4-8.9,29.5-14.1c21-5.2,20.3-21.3,20.3-21.3
		C1401.1,1096,1410,1094.8,1415.1,1089.7L1415.1,1089.7z"/>
	<path class="st67" d="M1509,1090.1c0,0,3.8,23.2-0.8,37l-72.4-0.5c0,0,9-8.9,31.1-13.7c22.1-4.8,21.7-21.2,21.7-21.2
		C1494.2,1096.1,1503.6,1095.1,1509,1090.1L1509,1090.1z"/>
	<path class="st82" d="M1448.8,527.2c0,0-111.6,53-137.8,64.6c-2.2,3.6-3.1,9.5,0.1,14.1c0,0,128.1-17,150.2-35.5
		C1461.3,570.4,1492.9,537.6,1448.8,527.2L1448.8,527.2z"/>
	<path class="st82" d="M1422.8,560.2c0,0,53.4-123.9,37.7-154.8c-15.7-30.9-63.1-9.2-69.9,46.1c-6.7,55.3-4.2,58.3-4.5,83.3
		C1386,555.2,1396.7,563.7,1422.8,560.2L1422.8,560.2z"/>
	<path class="st83" d="M1474,400.2c0,0-17.6-19.1-38.2-23.9c-9.9-2.3-20.5-1.3-30.1,6.7c-25.1,20.9-37,62.8-30,99
		c20.2,104.8,21.6,138.5,30.3,191.1c0,0,129.1-1.3,121.9-27.1c0,0-27.7-82.9-29.5-124.7C1503.5,468.5,1497.3,426.3,1474,400.2
		L1474,400.2z"/>
	<path class="st82" d="M1434,381.1c0.3,0-0.3,0.5-0.5,0.7c-0.4,0.4-0.8,0.9-1.2,1.3c-1.4,1.3-2.9,2.6-4.4,3.7
		c-3.1,2.3-6.5,4.2-10.1,5.6c-1.4,0.5-4.2,0.6-5.4,1.6c-0.3,0.2,1.6,1.7,1.7,1.9c1.1,1.1,1.5,2.8,1.9,4.4c1,4,1.5,8.9,1.8,8.8
		c1.3-0.7,5.6-1.8,6.7-2.7c5.1-4.1,9.5-9.5,11.2-16.3c0.6-2.3,1.2-8.1-2.1-9"/>
	<path class="st82" d="M1413.9,393.8c0-0.3-1.4,0.7-1.5,0.8c-0.9,1.1-1.5,2.4-2,3.7c-0.7,2.2-0.9,4.6-0.7,7c0,0.3,0.4,3.7,0.2,3.6
		c-0.6-0.2-1.1-1.3-1.4-1.8c-1.1-1.9-1.6-4-1.8-6.2c-0.2-2.3-0.1-4.7,0.3-7c0.4-2.2,0.9-4.3,1.6-6.4c0.3-0.8,0.6-1.7,1-2.5
		c0.1-0.2,0.5-0.7,0.6-0.4c0.4,2.2,0,4,1.7,5.9c0.7,0.8,1.6,1.7,2.5,2.4c0.1,0.1,0.9,0.4,0.8,0.6"/>
	<path class="st84" d="M1360.1,301.3c-3-9.7-0.5-19.9,5.9-28.5c0.8-1.1,1.7-2.2,2.6-3.2c0.4-0.5,0.8-1,1.3-1.5c0.3-0.4,0.7-0.7,1-1
		c2.8-2.5,0.1,1.7-0.2,2.8c-0.6,2.2-0.8,4.4-0.8,6.7c0,0.3,0,3.7,0.5,3.7c0.2,0,1.4-2.8,1.6-3c1.2-2,2.6-3.7,4.2-5.3
		c5.8-5.7,13.4-8.5,21.5-7.9c1.8,0.1,5.8,0.4,7.1,1.9c0.1,0.1-2,0.9-2.2,1c-1.5,0.7-2.8,1.6-4,2.7c-2.7,2.7-6.1,8.9-3.5,12.6
		c11.9-1,23.1,0.3,26.9,3.6c3.9,3.5,10.2,9,12.2,23c1.5,10.7-0.4,18.6-0.9,29.4c-0.3,5-1,10.2-3.1,14.7c-0.7,1.6-1.7,3.2-2.9,4.5
		c-0.1,0.1-1.5,1.1-1.5,1.1l-53.5-40.1l-0.1,0c-0.2,0.1-1.1-0.8-1.7-1.5C1363.3,311,1360.3,305.8,1360.1,301.3L1360.1,301.3z"/>
	<path class="st85" d="M1407.7,368.9l3,20c0,0,0.9,3.3,3.7,4.2c4,1.3,11.1-0.7,19.8-11.6l-13.4-37.8L1407.7,368.9L1407.7,368.9z"/>
	<g>
		<defs>
			<path id="SVGID_67_" d="M1407.7,368.9l3,20c0,0,0.9,3.3,3.7,4.2c4,1.3,11.1-0.7,19.8-11.6l-13.4-37.8L1407.7,368.9L1407.7,368.9z
				"/>
		</defs>
		<clipPath id="SVGID_68_">
			<use xlink:href="#SVGID_67_"  style="overflow:visible;"/>
		</clipPath>
		<path class="st86" d="M1424.3,353.8c-0.3-0.3,0.2,0.8,0.2,1.2c0,0.9-0.1,1.8-0.3,2.7c-0.4,2.6-1,5.2-1.7,7.7
			c-2.1,7.3-5.9,15.2-11.2,20.7c-1.3,1.3-5.2,5.3-7.4,3.9c-1.4-0.9-1.1-3.9-1.1-5.2c0-6,0.4-12.1,0.9-18.1
			c0.7-8.1,1.5-16.3,2.7-24.4c0.4-2.6,0.7-7.3,3.6-8.5c3.9-1.6,10.7,1.1,14.9,1.4"/>
	</g>
	<path class="st85" d="M1369.6,303.6c0,0-4,75.6,23,76.3c27,0.7,33.6-35,33.6-35l-13.9-55L1369.6,303.6L1369.6,303.6z"/>
	<path class="st84" d="M1382.2,298.7l-0.9-1.6c9.4-3.7,22.8-13.8,32.7-10.8c3.3,1,5.1,11.5,6.5,14.9c0.5,1.2,0.9,3.6-0.6,4.3
		c-2.2,1.1-5-1.9-6.7-2.9c-3-1.7-6.6-1.8-9.9-1.1c-4.2,0.8-8.1,2.8-11.9,4.6c-0.3,0.2-5.3,2.9-6.1,3c-1.1,0.1-2.2-0.7-3.2-1.3
		c-1.7-1-3.3-2-5-2.5c-3.8-1-11-0.2-13,4.2l0-3.9l5.8-5.3C1371,300.1,1381.1,298.9,1382.2,298.7L1382.2,298.7z"/>
	<path class="st51" d="M1321.7,591.5c0,0-31.2-7.1-40.7-1.9c0,0-7,4.3-2.9,6.9c0,0-2.8,5.1,0.5,6.9c0,0-0.8,5.6,3.4,7
		c4.2,1.5-0.4,6.2,5.4,6.2c0,0,36.1-11.6,39.4-17.3L1321.7,591.5L1321.7,591.5z"/>
	<path class="st82" d="M1447.8,520.8c0,0-103,59.7-127.5,69.4c-5.3,5.5-2.7,11.9,2.6,14.9c0,0,112.1-26.7,133.5-46.1
		C1456.4,559,1457.2,532.3,1447.8,520.8L1447.8,520.8z"/>
	<path class="st82" d="M1456.4,559c15.3-11.3,39.2-103.4,27.6-139.8c-10.6-33-46.6-28.3-52.2,27.1c-5.6,55.4-2.4,63.9-6.8,88.6
		C1427.1,546.2,1443.3,558.4,1456.4,559L1456.4,559z"/>
</g>
</svg>
